<svg xmlns="http://www.w3.org/2000/svg" width="70.4" height="59.199" viewBox="0 0 1863 1566" shape-rendering="geometricPrecision" text-rendering="geometricPrecision" image-rendering="optimizeQuality" fill-rule="evenodd" clip-rule="evenodd"><defs><style>.fil1{fill:#fefefe}.fil2{fill:#e31e24}.fil0{fill:#fefefe;fill-rule:nonzero}</style></defs><g id="Layer_x0020_1"><g id="_637027664"><path class="fil0" d="M97 1113H79c-2 18-7 34-14 48-8-14-14-30-16-48H31c2 22 13 44 25 62l-14 25h19l14-26c10-18 19-40 22-61zm70 26c0-17-12-27-34-27-9 0-18 1-25 4v84h17v-34c2 0 5 1 8 1 22 0 34-12 34-28zm-17 0c0 9-6 15-18 15-3 0-6 0-7-1v-27c2-1 5-2 9-2 10 0 16 5 16 15zm100 61l-29-87h-20l-29 87h17l7-21h30l6 21h18zm-28-33h-23l9-30c2-4 2-10 2-10h1s1 6 2 10l9 30zm106 33l-10-87h-45l-3 34c-2 19-5 33-18 40l5 15c21-9 27-30 29-54l2-21h15l7 73h18zm71-27c0-16-11-27-33-27-3 0-7 0-9 1v-34h-16v83c6 3 15 5 25 5 21 0 33-11 33-28zm-17 0c0 10-5 15-16 15-4 0-7 0-9-1v-28h8c11 0 17 5 17 14zm81 23l-6-13c-2 1-6 3-11 3-11 0-19-10-19-30 0-19 8-30 19-30 5 0 9 2 11 4l6-14c-5-3-12-4-19-4-19 0-35 14-35 44 0 31 16 45 35 45 8 0 14-2 19-5zm76 4l-13-30c-3-9-9-14-17-18l30-39h-20l-27 39v-39h-17v87h17v-41c8 0 14 6 17 13l12 28h18zm75 0v-87h-15l-30 50c-3 5-5 10-5 10v-60h-15v87h14l31-52c3-4 5-10 5-10v62h15zm81 0v-87h-14l-31 50c-2 5-5 10-5 10v-60h-15v87h14l31-52c3-4 5-10 5-10v62h15zm-15-112l-9-1c0 6-3 10-8 10-6 0-8-4-9-10l-9 1c0 11 6 18 18 18 11 0 17-7 17-18zM787 1127v-14h-46v87h17v-73h29zm76 29c0-25-11-44-34-44-22 0-33 19-33 44 0 26 11 45 33 45 23 0 34-19 34-45zm-17 0c0 18-6 30-17 30s-16-12-16-30 5-29 16-29 17 11 17 29zm81 40l-5-13c-3 1-7 3-12 3-11 0-19-10-19-30 0-19 8-30 19-30 5 0 9 2 12 4l5-14c-4-3-11-4-19-4-19 0-34 14-34 44 0 31 15 45 34 45 8 0 15-2 19-5zm73-83h-17c-2 18-8 34-14 48-8-14-14-30-16-48h-18c2 22 12 44 25 62l-14 25h19l14-26c10-18 19-40 21-61zm90 75l-6-2-8-73h-43l-3 22c-2 19-7 42-22 53l1 29h11l1-17h56l1 17h11l1-29zm-22-2h-39c10-10 15-32 17-50l1-9h14l7 59zm106 14l-29-87h-20l-29 87h17l7-21h30l6 21h18zm-28-33h-23l9-30c2-4 3-10 3-10s1 6 2 10l9 30zm95-28c0-17-12-27-33-27-10 0-19 1-25 4v84h16v-34c2 0 5 1 8 1 23 0 34-12 34-28zm-16 0c0 9-7 15-19 15-2 0-5 0-7-1v-27c2-1 6-2 9-2 11 0 17 5 17 15zm79 57l-5-13c-3 1-7 3-12 3-11 0-19-10-19-30 0-19 8-30 19-30 5 0 9 2 12 4l5-14c-4-3-11-4-19-4-19 0-34 14-34 44 0 31 15 45 34 45 8 0 15-2 19-5zm61-69v-14h-53v14h18v73h17v-73h18zm73 49c0-12-9-19-16-21v-1c7-1 13-9 13-19 0-14-10-23-32-23-10 0-20 1-26 4v80c6 3 16 5 26 5 23 0 35-9 35-25zm-19-39c0 4-1 8-4 10-2 2-6 3-11 3h-11v-24c2-1 6-2 10-2 11 0 16 5 16 13zm2 38c0 9-6 13-18 13-4 0-8 0-10-1v-25h11c6 0 9 1 11 2 4 3 6 6 6 11zm76 25v-14h-30v-23h27v-14h-27v-22h30v-14h-46v87h46zm74 0v-87h-17v36h-27v-36h-17v87h17v-37h27v37h17zm76 0v-87h-17v36h-27v-36h-16v87h16v-37h27v37h17zm100 0v-87h-17v87h17zm-26-27c0-16-11-27-33-27-3 0-7 0-9 1v-34h-16v83c7 3 15 5 25 5 22 0 33-11 33-28zm-16 0c0 10-6 15-17 15-3 0-7 0-9-1v-28h8c12 0 18 5 18 14zm124 27v-87h-15l-30 50c-3 5-5 10-5 10h-1s1-6 1-11v-49h-15v87h13l31-52c3-4 6-10 6-10v62h15zm-15-112l-9-1c-1 6-3 10-9 10s-8-4-9-10l-9 1c1 11 7 18 18 18s17-7 18-18zM156 1494c0-25-18-48-49-50v-10H81v10c-31 2-49 25-49 50 0 24 18 47 49 49v12h26v-12c31-2 49-25 49-49zm-31 0c0 12-5 25-18 26v-52c13 1 18 13 18 26zm-44 26c-13-1-18-14-18-26 0-13 5-25 18-26v52zm172 30v-112h-24l-27 48c-4 6-7 14-7 14v-62h-26v112h23l28-49c4-7 7-14 7-14v63h26zm90-33c0-12-7-21-18-26 9-5 15-14 15-24 0-18-11-31-39-31-12 0-24 3-35 7l9 23c6-2 14-4 22-4 9 0 12 3 12 8 0 6-8 12-26 13v22c17 0 29 5 29 12 0 5-5 10-15 10s-17-2-24-5l-9 24c10 4 21 6 34 6 29 0 45-13 45-35zm98 33v-112h-24l-27 48c-4 6-7 14-7 14v-62h-27v112h24l28-49 6-14h1s-1 8-1 15v48h27zm96 0v-112h-30v50c-2 1-5 1-8 1-7 0-11-2-11-9v-42h-31v45c0 20 13 33 34 33 6 0 11-1 16-2v36h30zm78 0v-25h-31v-18h27v-25h-27v-18h31v-26h-61v112h61zm81-4l-9-25c-3 2-7 4-11 4-11 0-18-12-18-31s7-31 18-31c4 0 8 2 11 4l9-24c-5-4-14-7-24-7-26 0-45 20-45 58 0 39 19 58 45 58 10 0 19-2 24-6zm104 4l-14-39c-4-10-9-18-17-23l30-50h-35l-25 49v-49h-31v112h31v-50c7 0 12 6 15 14l11 36h35zm93-56c0-33-14-58-44-58s-44 25-44 58c0 34 14 58 44 58s44-24 44-58zm-31 0c0 20-4 31-13 31s-13-11-13-31 4-30 13-30 13 10 13 30zm129 56v-112h-24l-27 48c-4 6-7 14-7 14v-62h-26v112h23l28-49c4-7 7-14 7-14v63h26zm-17-146l-16-2c0 7-3 12-9 12s-9-5-9-12l-16 2c0 16 8 27 25 27s25-11 25-27zM1134 1550l-14-39c-3-10-8-18-17-23l30-50h-34l-25 49h-1v-49h-31v112h31v-50c8 0 13 6 15 14l12 36h34zm94-112h-33c-1 21-6 40-11 55h-1c-7-15-11-33-13-55h-33c2 29 14 57 31 81l-18 31h35l17-32c12-22 24-53 26-80zm103 112l-12-112h-65l-6 53c-1 18-7 31-18 36l9 27c25-7 37-32 39-60l3-31h11l8 87h31zm94-35c0-21-14-37-44-37h-8v-40h-30v108c10 4 22 6 36 6 30 0 46-15 46-37zm-30 0c0 10-5 14-16 14h-6v-28h6c11 0 16 4 16 14zm108-51v-26h-69v26h19v86h31v-86h19zm98-26h-33c-1 21-5 40-11 55-7-15-12-33-13-55h-33c1 29 14 57 31 81l-19 31h35l17-32c13-22 25-53 26-80zm93 36c0-23-16-38-46-38-14 0-27 3-36 7v107h30v-40c2 1 5 1 8 1 30 0 44-16 44-37zm-30 0c0 9-5 14-16 14h-6v-28c2 0 4-1 6-1 11 0 16 5 16 15zm164 76v-112h-31v112h31zm-40-35c0-21-14-37-44-37h-7v-40h-30v108c9 4 21 6 35 6 30 0 46-15 46-37zm-30 0c0 10-5 14-16 14h-5v-28h5c11 0 16 4 16 14zM454 1253h-39c-2 25-7 48-14 66-8-19-14-40-16-66h-39c1 34 16 68 37 96l-22 38h41l21-38c15-27 29-64 31-96zm112 134v-134h-37v52h-25v-52h-37v134h37v-52h25v52h37zm121 0v-134h-29l-33 57c-4 8-8 17-8 17v-74h-32v134h29l33-59c5-8 8-17 8-17h1s-1 10-1 19v57h32zm120-37c0-17-11-28-21-32v-1c11-3 19-15 19-28 0-22-16-39-54-39-17 0-33 3-44 8v124c10 4 27 8 44 8 38 0 56-15 56-40zm-37-57c0 5-2 9-4 11-2 1-6 3-11 3h-13v-28c2-1 6-1 9-1 14 0 19 6 19 15zm1 54c0 11-6 15-20 15-3 0-7 0-9-1v-28h13c6 0 9 1 12 3 2 3 4 7 4 11zm125 40v-31h-37v-21h33v-30h-33v-21h37v-31h-73v134h73zm116-91c0-28-19-46-55-46-18 0-32 3-43 8v129h36v-48c2 1 6 1 9 1 36 0 53-19 53-44zm-36 0c0 11-6 16-19 16h-7v-33c2-1 4-1 7-1 13 0 19 5 19 18zm131 86l-11-30c-3 2-8 5-13 5-14 0-21-14-21-37s7-37 21-37c5 0 10 2 13 4l11-29c-6-4-17-8-29-8-31 0-54 24-54 70s23 70 54 70c12 0 23-3 29-8zm116 5v-134h-30l-32 57c-4 8-8 17-8 17v-74h-32v134h28l34-59c4-8 8-17 8-17v76h32zm98-103v-31h-83v31h23v103h37v-103h23zm89 103v-31h-37v-21h32v-30h-32v-21h37v-31h-74v134h74zm96-103v-31h-83v31h23v103h37v-103h23z"/></g><g id="_637033200"><path class="fil1" d="M1029 732c85 45 172 51 275 21 118-35 203-124 335-110 53 5 45-17 1-28-66-15-128-13-181 7-148 55-251 131-418 79-43-14-58 6-12 31z"/><path class="fil1" d="M1183 686c35-2 83-11 143-36 35-15 60-28 77-36 29-14 32-13 18-35-15-25-22-31-40-58-20-30-31-41-67-20-25 14-48 29-70 45-8 5-29 16-41 19-9 7 30 7 66-6 33-12 71-24 81-9 7 10-2 21-31 41-42 28-96 61-143 81-21 9-17 14 7 14zM1450 526c13-1 24 12 25 29s-8 31-21 32c-12 1-23-12-24-29s8-31 20-32zM1043 629c24-41 73-78 121-105 64-37 132-51 197-85 71-38 115-95 128-154 10-45 7-56-14-19-35 62-91 106-139 124-26 10-64 19-73-20-14-57-44-101-85-135-36-30-26-17-11 14 18 36 27 60 30 74 5 28-5 33-33 14-16-10-27-29-39-53-13-27-14-32-18 4-5 42 16 76 62 91 17 6 29 8 35 13 16 14-4 32-19 43-38 25-66 39-105 79-35 34-56 82-61 109-8 35 9 30 24 6z"/><path class="fil1" d="M1287 286c4 3 16 17 17 36 1 14-12 21-22 17-8-4-20-10-25-35-3-16 13-31 30-18zM938 582C920 370 837 158 696 31c-12-12-6-18 16-12 59 17 126 81 199 197 8 13 11 31 29 29 21-2 42-38 44-56 2-17-7-32-18-39-12-7-27-2-25 19 1 10 4 18 11 28 6 11-13 16-32-4-16-15-27-40-22-79 3-30 19-45 42-37 28 9 59 34 83 78 11 21 31 62 37 131 1 9 2 35-7 74-7 26-16 23-17-2 0-41-1-76-18-94-16-18-35-3-44 38-2 11-4 39-3 73 2 67 2 124-12 186-4 19-20 32-21 21zM1059 140c13-1 23 9 27 24 6 20-3 64-31 29-9-10-20-53 4-53zM508 194c38 89 93 144 188 171 54 15 86 58 115 118 11 24 16 48 25 63 20 34 8 41-15 18-6-6-14-20-31-43-14-15-25-13-16 13 7 21 36 57 65 77 23 17 17 34-21 19-16-6-47-27-64-43-7-7-28-39-40-82-10-37-19-58-52-68-10-2-32-6-69-10-41-6-82-22-106-54-35-46-49-122-53-178-2-27 17-39 26-9 13 39 21 82 43 117 9 14 33 31 18-2-11-23-23-50-34-103-9-46 7-36 21-4zM803 378c18 1 30 14 36 34 9 53-35 36-48 7-12-27-4-42 12-41z"/><path class="fil1" d="M904 594c5 16-2 29-17 35-16 7-32-5-35-22-5-35 43-43 52-13z"/><g><path class="fil1" d="M847 697c-93 31-167 11-233-61-38-41-76-68-131-90-3-1-5-3-8-4-19-7-11-19-1-26 17-12 55-23 114-21 21 1-3-17-21-20-69-10-106 4-134 27s-38 55-63 79c-36 36-88 45-146 30-19-5-20 4-7 19 11 13 39 30 83 26 50-4 86-25 120-55 13-11 26-9 54 8 11 7 19 21 9 36-24 33-36 58-1 88 16 13 40 30 72 35 16 3 46 7 86 0 16-3 11-19-25-26-37-7-72-19-93-34-21-14-6-30 6-44 7-9 17-7 37 11 51 46 102 81 170 86 46 3 86-11 123-36 30-20 9-35-11-28z"/><path class="fil1" d="M309 528c1-16 14-21 30-22 22-1 63 22 22 40-15 6-53 6-52-18z"/></g><path class="fil1" d="M1468 717c57-28 134-54 200-23 27 13 29 26-3 20-70-13-135 6-192 21-47 12-47 3-5-18zM407 717c-57-28-134-54-200-23-27 13-29 26 3 20 70-13 135 6 192 21 47 12 47 3 5-18zM1181 185c15-50 78 1 67-66-6-36 70-16 61-59-2-11-14-9-15 2 0 12-7 12-28 19-34 11-35 18-33 51 0 8-8 12-26 14-22 2-35 14-37 35-1 16 7 19 11 4z"/></g><path class="fil2" d="M930 964c49 0 90-32 105-76h821v-51H988v17c0 32-26 58-58 58-33 0-59-26-59-58v-17H3v51h821c15 44 56 76 106 76z"/></g></svg>