<svg width="70" height="75" fill="none" xmlns="http://www.w3.org/2000/svg"><path d="M68.384 46.638v4.212a6.564 6.564 0 01-1.131 3.686 5.877 5.877 0 01-2.94 2.264c-5.636 1.961-16.389 2.806-25.096.738A167.333 167.333 0 0121.764 52.4c-.064.139-.047-.089-.047 1.35a2.601 2.601 0 01-.685 1.766 2.265 2.265 0 01-1.648.734H4.217a2.265 2.265 0 01-1.648-.734 2.6 2.6 0 01-.685-1.766V41.413A112.012 112.012 0 014.217 28.75a76.333 76.333 0 001.54-24.712 2.67 2.67 0 01.094-1.043c.1-.336.264-.646.483-.91a2.35 2.35 0 01.79-.617c.3-.144.626-.219.955-.218h20.23c.336.001.669.08.974.232.305.151.576.371.795.646.218.274.378.596.47.943.091.346.112.71.06 1.067C28.141 21.787 35.26 31.02 45.388 34c3.346.95 6.739 1.7 10.162 2.25 9.788 1.612 12.285 6.862 12.833 10.388z" fill="#02A9F4"/><path d="M68.384 46.638v4.212a6.564 6.564 0 01-1.131 3.686 5.877 5.877 0 01-2.94 2.264 47.609 47.609 0 01-15.74 1.913 43.541 43.541 0 0012.24-1.913 5.877 5.877 0 002.94-2.264 6.564 6.564 0 001.13-3.686v-4.212c-.547-3.526-3.044-8.776-12.832-10.388A88.837 88.837 0 0141.889 34c-10.13-2.98-17.244-12.212-14.782-29.863a2.66 2.66 0 00-.06-1.066 2.562 2.562 0 00-.47-.943 2.358 2.358 0 00-.794-.646 2.204 2.204 0 00-.974-.232h3.5a2.2 2.2 0 01.974.232c.305.151.576.371.794.646.219.274.38.596.47.943.092.346.112.71.06 1.067C28.145 21.787 35.26 31.02 45.39 34a88.74 88.74 0 0010.161 2.25c9.789 1.612 12.285 6.862 12.834 10.388z" fill="#0377BC"/><path d="M7.717 56.25h8.167v10H7.717v-10zm39.667 2.4v7.6h-8.167v-8.712a45.89 45.89 0 008.167 1.112z" fill="#C99206"/><path d="M68.384 49.125v1.725a6.564 6.564 0 01-1.131 3.686 5.877 5.877 0 01-2.94 2.264c-5.636 1.961-16.389 2.806-25.096.738A167.333 167.333 0 0121.764 52.4c-.064.139-.047-.089-.047 1.35a2.601 2.601 0 01-.685 1.766 2.265 2.265 0 01-1.648.734H4.217a2.265 2.265 0 01-1.648-.734 2.6 2.6 0 01-.685-1.766v-10.3c23.41 3.305 19.317 2.625 20.825 3.188 7.27 2.76 16.713 5.562 24.407 5.837 6.697.262 16.562-1.375 21.268-3.35z" fill="#747B7D"/><path d="M68.384 49.125v1.725a6.566 6.566 0 01-1.131 3.686 5.877 5.877 0 01-2.94 2.264 47.608 47.608 0 01-15.739 1.913A43.54 43.54 0 0060.812 56.8a5.877 5.877 0 002.941-2.264 6.566 6.566 0 001.131-3.686v-.563a27.344 27.344 0 003.5-1.162z" fill="#DCA108"/><path d="M60.217 73.75H3.891a1.13 1.13 0 01-.68-.237 1.263 1.263 0 01-.429-.613l-1.551-5a1.335 1.335 0 01.158-1.13 1.19 1.19 0 01.416-.383c.165-.09.348-.138.534-.137h57.878a5.03 5.03 0 002.92-.693 5.527 5.527 0 002.109-2.27c.11-.217.277-.394.48-.509a1.094 1.094 0 011.287.151c.176.16.304.371.367.608 1.132 4.075 1.412 10.213-7.163 10.213z" fill="#707070"/><path d="M56.717 73.75H3.891a1.13 1.13 0 01-.68-.237 1.263 1.263 0 01-.429-.613l-1.551-5a1.335 1.335 0 01.158-1.13 1.19 1.19 0 01.416-.383c.165-.09.348-.138.534-.137h57.878c1.447.077 2.865-.452 3.955-1.475.817 3.962.292 8.975-7.455 8.975z" fill="#9E9E9E"/><path d="M21.402 46.2L1.884 43.45v-2.038a94.217 94.217 0 011.738-10.05c4.375.476 15.61 2.85 17.78 14.838zm2.454-30.911c1.893 0 3.429-1.645 3.429-3.674s-1.535-3.674-3.43-3.674c-1.893 0-3.428 1.645-3.428 3.674s1.535 3.674 3.429 3.674z" fill="#DCA108"/><path d="M64.675 57.992c1.416-.483 2.651-1.436 3.528-2.72a7.866 7.866 0 001.348-4.428c0-1.884.007-4.263-.017-4.412-.543-3.5-3.063-9.647-13.808-11.417a62.726 62.726 0 01-10.132-2.25 1.32 1.32 0 00-.093-.888 1.184 1.184 0 00-.627-.589c-.27-.106-.567-.1-.833.016a1.193 1.193 0 00-.606.614 18.637 18.637 0 01-3.554-1.695 1.3 1.3 0 00-.097-1.671 1.116 1.116 0 00-.774-.344 1.11 1.11 0 00-.788.308l-.252.234a17.426 17.426 0 01-2.7-3.054l.632-.267c.145-.058.278-.147.392-.26.113-.114.204-.25.267-.403a1.326 1.326 0 00-.23-1.382 1.169 1.169 0 00-.382-.279 1.101 1.101 0 00-.904-.001l-1.067.452a22.469 22.469 0 01-1.554-3.892l1.124-.2a1.16 1.16 0 00.758-.506c.18-.27.252-.605.202-.932a1.291 1.291 0 00-.158-.459 1.205 1.205 0 00-.312-.358 1.117 1.117 0 00-.417-.2 1.078 1.078 0 00-.456-.01l-1.34.239a31.168 31.168 0 01-.569-4.924l1.093-.134c.156-.013.308-.06.447-.137a1.19 1.19 0 00.361-.314c.1-.13.174-.28.219-.44a1.337 1.337 0 00-.103-.97 1.23 1.23 0 00-.305-.377 1.137 1.137 0 00-.418-.218 1.09 1.09 0 00-.464-.027l-.817.1a48.81 48.81 0 01.495-5.467 4.011 4.011 0 00-.091-1.602 3.842 3.842 0 00-.708-1.416A3.536 3.536 0 0029.77.344 3.305 3.305 0 0028.307 0H8.079c-.494 0-.982.112-1.433.328-.45.217-.853.533-1.181.928-.329.395-.575.86-.724 1.365a4.005 4.005 0 00-.139 1.563 75.734 75.734 0 01-1.516 24.271A108.334 108.334 0 00.73 41.345c-.013.366-.013 1.864-.013 12.405a3.89 3.89 0 001.025 2.652A3.386 3.386 0 004.217 57.5h2.334V65H2.337c-.37 0-.735.093-1.065.273-.33.18-.614.443-.83.764a2.601 2.601 0 00-.415 1.086A2.67 2.67 0 00.12 68.29l1.555 5c.155.498.453.932.85 1.238A2.23 2.23 0 003.893 75h56.325c7.494 0 10.273-4.642 8.284-11.816a2.52 2.52 0 00-.744-1.212 2.257 2.257 0 00-1.246-.565 2.2 2.2 0 00-1.33.27c-.409.23-.745.583-.965 1.017a4.276 4.276 0 01-1.676 1.797c-.71.41-1.519.587-2.323.509H48.551v-5.035c4.84.121 11.613-.416 16.124-1.973zM6.92 3.902a1.335 1.335 0 01.044-.523c.05-.169.131-.325.24-.457.11-.133.245-.24.396-.312.15-.073.314-.11.479-.11h20.228c.168-.001.334.037.487.113.152.075.287.186.396.323.69.861-.105 1.195-.252 7.145l-.712.088c-.337-1.131-1.046-2.092-1.996-2.704a4.308 4.308 0 00-3.165-.62c-1.09.211-2.072.841-2.76 1.771a5.126 5.126 0 00-.983 3.283 5.063 5.063 0 001.284 3.161 4.444 4.444 0 002.91 1.468 4.348 4.348 0 003.092-.955c.889-.71 1.505-1.743 1.735-2.904l.633-.078c.083 1.695.289 3.38.615 5.042l-4.024.717c-.297.063-.56.248-.733.515a1.321 1.321 0 00-.192.916c.05.321.215.608.459.801.244.193.548.277.849.233l4.223-.75a26.07 26.07 0 001.677 4.392l-3.967 1.68a1.209 1.209 0 00-.636.665 1.333 1.333 0 00-.013.953c.113.307.335.554.617.686.283.132.602.14.89.02l4.327-1.836a19.709 19.709 0 003.123 3.773L33.93 32.5c-.224.22-.36.525-.378.85-.017.325.084.644.283.89.199.247.48.4.782.428.303.028.604-.072.839-.278l2.617-2.428a20.05 20.05 0 004.294 2.335L40.975 37.4a1.314 1.314 0 00-.082.979c.048.16.127.31.23.436.104.128.231.231.373.304a1.106 1.106 0 001.313-.223c.114-.117.205-.257.267-.412l1.534-3.42a68.205 68.205 0 0010.76 2.421c8.756 1.443 11.278 5.82 11.844 9.273v1.47a48.031 48.031 0 01-9.675 2.274A49.81 49.81 0 0134.97 49.26a101.77 101.77 0 01-12.621-4.125C19.92 34.158 10.33 31.125 5.065 30.3A78.046 78.046 0 006.92 3.902zm17.64 9.223c.11 0 .13-.009 1.154-.134a2.28 2.28 0 01-1.146.928 2.123 2.123 0 01-1.437-.002 2.282 2.282 0 01-1.145-.93 2.547 2.547 0 01-.389-1.482c.024-.526.208-1.03.524-1.433a2.24 2.24 0 011.224-.805 2.12 2.12 0 011.43.15c.449.216.82.582 1.056 1.044l-1.4.173a1.147 1.147 0 00-.756.438 1.307 1.307 0 00-.271.874c.017.318.146.616.361.835.216.22.5.342.798.344h-.002zM4.53 32.741c4.506.672 12.81 3.125 15.32 11.985l-16.8-2.372c.256-3.241.75-6.456 1.48-9.613zM3.05 53.75v-8.875l18.182 2.563c.768.124-.21-.035 3.89 1.403 15.754 5.534 23.829 5.523 32.762 4.135a53.519 53.519 0 009.333-2.078 5.239 5.239 0 01-.915 2.922 4.69 4.69 0 01-2.342 1.791 43.21 43.21 0 01-11.424 1.81c-4.368.269-8.75-.1-13.026-1.095-10.298-2.421-17.304-5.16-17.685-5.16-.689.01-1.249.597-1.274 1.334v1.25c0 .331-.123.65-.342.884a1.129 1.129 0 01-.825.366H4.217a1.13 1.13 0 01-.825-.366 1.297 1.297 0 01-.341-.884zm14 11.25v-7.5h2.334c.868 0 1.704-.345 2.348-.969a3.85 3.85 0 001.134-2.406c2.818.968 8.867 2.858 15.185 4.41V65h-21zm-8.166-7.5h5.833V65H8.884v-7.5zm57.38 6.395c1.653 5.956-.495 8.605-6.047 8.605H3.892l-1.555-5h57.88a6.04 6.04 0 003.519-.849 6.644 6.644 0 002.528-2.756zm-20.047-3.959V65h-5.833v-5.924c.398.084 3.774.708 5.833.86z" fill="#000"/></svg>