<svg width="66" height="70" fill="none" xmlns="http://www.w3.org/2000/svg"><path d="M31.057 41.946l-5.064-4.414c-1.336-1.165-2.204-2.834-2.426-4.665a7.705 7.705 0 01.177-2.805c.23-.914.627-1.77 1.166-2.52l2.075-2.886.592-.896 20.017-1.966.165.522a7.583 7.583 0 010 4.55c-.465 1.476-1.37 2.747-2.577 3.617a6.299 6.299 0 01-4.155 1.194l-8.86-.65 4.848 5.896-5.958 5.023z" fill="#114E63"/><path d="M23.976 12.56l5.906.546a39.31 39.31 0 0113.06 3.808c2.033.998 3.678 2.723 4.651 4.88l-24.946 3.464-1.445.237.601-7.21 2.173-5.724z" fill="#0A9ACD"/><path d="M13.266 20.653l1.225 1.011 3.254-.452 6.56-7.5-2.502-.218-3.154-3.042" fill="#114E63"/><path d="M37.015 36.922l-5.958 5.025 3.379 2.944-2.816 2.03a3.641 3.641 0 00-1.015 1.131c-.26.45-.428.953-.492 1.478a3.986 3.986 0 00.119 1.564c.143.506.384.974.709 1.373l10.735-2.526 1.512-4.887-.092-.158a40.957 40.957 0 00-6.081-7.974z" fill="#DE8F1C"/><path d="M10.816 18.63l2.691-5.1 3.395.71.281 2.324-3.917 4.089-2.45-2.023z" fill="#0A9ACD"/><path d="M16.902 14.24l1.747-3.788-2.45-2.023-2.817 5.456 3.52.354z" fill="#C38325"/><path d="M2.74 35.103c-.283 0-.554-.115-.757-.324a1.21 1.21 0 01-.338-.795 1.224 1.224 0 01.27-.824 1.07 1.07 0 01.727-.396l56.684-3.312a1.05 1.05 0 01.8.267 1.2 1.2 0 01.388.795 1.23 1.23 0 01-.249.856 1.074 1.074 0 01-.741.417L2.84 35.1a1.19 1.19 0 01-.1.005z" fill="#CBCBCB"/><path d="M57.536 34.417c-.266 0-.522-.104-.722-.292a1.2 1.2 0 01-.362-.73l-.562-4.648a1.234 1.234 0 01.22-.862 1.08 1.08 0 01.725-.445c.286-.04.576.044.806.232.23.188.38.467.418.773l.563 4.65c.018.152.008.307-.029.456a1.207 1.207 0 01-.19.41 1.122 1.122 0 01-.321.3 1.047 1.047 0 01-.546.156z" fill="#A8A8A8"/><path d="M3.489 59.026l59.78-14.24a4.969 4.969 0 01-.58 3.532c-.623 1.049-1.609 1.79-2.741 2.06L8.708 62.584a4.131 4.131 0 01-3.298-.621c-.978-.667-1.67-1.724-1.921-2.937z" fill="#0A9ACD"/><path d="M2.328 65.284c-.27 0-.53-.106-.73-.3a1.235 1.235 0 01-.159-1.555c.156-.234.389-.399.652-.461l61.92-14.78a1.022 1.022 0 01.829.15c.122.083.227.19.31.317.084.126.142.27.174.42a1.256 1.256 0 01-.147.887 1.14 1.14 0 01-.297.33c-.119.089-.252.15-.393.183l-61.92 14.78a1.028 1.028 0 01-.24.029z" fill="#EAEAE8"/><path d="M8.617 68.585c-.27 0-.53-.107-.73-.3a1.235 1.235 0 01-.16-1.554c.158-.234.39-.399.653-.461l5.338-1.275c.282-.066.578-.01.821.158.244.166.416.43.479.732.063.303.011.62-.143.881-.155.262-.4.448-.682.517l-5.338 1.274a1.021 1.021 0 01-.238.028z" fill="#CBCBCB"/><path d="M20.36 65.782c-.27 0-.53-.107-.73-.3a1.235 1.235 0 01-.159-1.555c.157-.234.39-.398.652-.461l16.014-3.823a1.022 1.022 0 01.829.15c.122.083.227.19.31.317.083.126.142.27.174.42a1.255 1.255 0 01-.147.887 1.14 1.14 0 01-.297.33c-.119.089-.253.15-.394.183L20.6 65.754a1.024 1.024 0 01-.24.028z" fill="#EAEAE8"/><path d="M41.711 60.685a1.05 1.05 0 01-.73-.3 1.236 1.236 0 01-.159-1.555c.157-.234.39-.398.653-.46l5.337-1.275c.283-.065.578-.008.82.159.244.167.416.43.478.732.063.302.012.618-.142.88a1.1 1.1 0 01-.68.517l-5.338 1.274a1.024 1.024 0 01-.239.028z" fill="#CBCBCB"/><path d="M51.32 58.392c-.27 0-.53-.107-.73-.3a1.235 1.235 0 01-.159-1.555c.157-.234.389-.399.652-.461l9.608-2.294a1.023 1.023 0 01.825.155c.12.083.226.19.308.316a1.252 1.252 0 01.028 1.302c-.077.13-.177.242-.295.33a1.06 1.06 0 01-.39.185l-9.609 2.294a1.025 1.025 0 01-.239.028zm-16.13 8.652c-.27 0-.53-.106-.73-.299a1.236 1.236 0 01-.159-1.555c.157-.235.389-.399.652-.462l13.878-3.312c.283-.066.578-.01.822.157s.416.43.479.733c.063.302.011.62-.143.88-.155.263-.4.449-.682.517L35.43 67.017a1.018 1.018 0 01-.24.027z" fill="#EAEAE8"/><path d="M24.628 69.566c-.269 0-.529-.107-.73-.3a1.236 1.236 0 01-.159-1.555c.157-.234.39-.399.653-.461l4.62-1.103c.283-.066.579-.01.822.157.244.167.416.43.48.733.062.302.01.619-.144.88-.155.263-.4.448-.682.517l-4.62 1.103a1.025 1.025 0 01-.24.028z" fill="#CBCBCB"/><path d="M45.379 40.6c-.27 0-.53-.107-.73-.3a1.235 1.235 0 01-.159-1.555c.157-.234.39-.398.652-.46l7.473-1.785c.283-.066.578-.009.822.158s.416.43.479.733c.062.302.01.619-.144.88-.154.263-.4.448-.681.517l-7.473 1.784a1.024 1.024 0 01-.24.028zm2.019 4.32c-.27 0-.53-.106-.73-.299a1.235 1.235 0 01-.159-1.555c.157-.234.389-.399.652-.461l3.203-.765c.282-.066.578-.009.822.158.243.167.415.43.478.733.063.302.012.619-.143.88a1.1 1.1 0 01-.681.517l-3.204.764a1.021 1.021 0 01-.238.029zM27.922 5.148c-.27 0-.53-.106-.73-.299a1.235 1.235 0 01-.159-1.556c.156-.234.389-.398.652-.46L39.428.027a1.023 1.023 0 01.825.155c.12.083.226.19.308.316A1.255 1.255 0 0140.59 1.8a1.14 1.14 0 01-.295.33 1.06 1.06 0 01-.39.185L28.16 5.119a1.024 1.024 0 01-.24.028zm4.154 3.811c-.27 0-.53-.107-.73-.3a1.235 1.235 0 01-.159-1.555c.157-.234.39-.398.652-.46l3.203-.765a1.023 1.023 0 01.829.15c.122.083.227.19.31.317a1.252 1.252 0 01.027 1.307c-.078.13-.179.242-.297.33-.119.089-.253.15-.394.183l-3.202.765a1.023 1.023 0 01-.24.028zm7.473-1.784c-.27 0-.53-.106-.73-.299a1.235 1.235 0 01-.159-1.556 1.09 1.09 0 01.652-.46l6.406-1.53a1.023 1.023 0 01.829.151c.122.083.227.19.31.317a1.252 1.252 0 01.027 1.307 1.082 1.082 0 01-.691.513l-6.405 1.529a1.023 1.023 0 01-.239.028z" fill="#B0D2FD"/><path d="M10.863 19.017l-1.44-.908c-.667-.42-1.236-1-1.662-1.691a5.69 5.69 0 01-.8-2.301 5.766 5.766 0 01.7-3.533c.602-1.058 1.522-1.865 2.609-2.287l5.648-2.193.28 2.325-5.335 10.588z" fill="#0A9ACD"/><path d="M7.461 27.367l-2.17.302-1.224-1.012-2.973 2.776 2.063 5.635 5.007-1.89-.703-5.81z" fill="#DE8F1C"/><path d="M22.326 13.659l-6.469 10.179-8.396 3.53.703 5.81 11.51-5.143 7.773-7.599a5.86 5.86 0 001.44-2.297 6.21 6.21 0 00.286-2.75c-.127-1.053-.64-2.008-1.424-2.655a3.639 3.639 0 00-1.306-.694 3.494 3.494 0 00-1.454-.105l-.056.008a3.577 3.577 0 00-1.475.559c-.45.295-.835.69-1.132 1.157z" fill="#0A9ACD"/><path d="M22.492 25.28l4.955-4.845-1.878 4.418-3.077.427z" fill="#961B20"/><path d="M65.315 49.077a1.174 1.174 0 00-.48-.734 1.033 1.033 0 00-.825-.156 6.199 6.199 0 00.354-3.685 1.174 1.174 0 00-.481-.734 1.033 1.033 0 00-.825-.155L43.33 48.322l.896-2.9a1.25 1.25 0 00-.111-.991l-2.666-4.553-6.598-6.65 21.43-1.251.172 1.418c.034.283.162.542.362.73a1.052 1.052 0 00.863.282c.142-.02.28-.07.404-.146.125-.077.234-.179.322-.3.087-.123.152-.262.19-.41.037-.149.047-.304.028-.457l-.15-1.245 1.013-.058c.144-.009.284-.047.414-.114.13-.066.245-.16.341-.274.096-.115.17-.248.218-.394a1.25 1.25 0 00-.046-.895 1.168 1.168 0 00-.256-.366 1.081 1.081 0 00-.367-.233 1.027 1.027 0 00-.423-.065l-1.176.069-.13-1.072a1.192 1.192 0 00-.419-.774 1.041 1.041 0 00-.806-.232c-.286.04-.547.2-.724.445a1.233 1.233 0 00-.22.862l.109.899-8.811.514a8.524 8.524 0 001.846-3.877 8.863 8.863 0 00-.24-4.344s-.196-.609-.21-.642l-.006-.015c-1.087-2.4-2.918-4.321-5.18-5.434a40.27 40.27 0 00-13.405-3.909l-1.597-.174-.033-.002a4.56 4.56 0 00-3.514-.991l-.058.008a4.21 4.21 0 00-.388.073 1.012 1.012 0 00-.191.007l-1.841.256-3.14-1.665-2.007-1.655-.223-1.843a1.225 1.225 0 00-.167-.488 1.133 1.133 0 00-.348-.362 1.026 1.026 0 00-.942-.1l-5.648 2.19a6.219 6.219 0 00-2.784 2.177 6.893 6.893 0 00-1.262 3.436 7.024 7.024 0 00.652 3.625 6.453 6.453 0 002.364 2.687l1.44.908c.169.106.36.162.555.162.016 0 .031-.003.046-.003l1.69 1.395 1.226 1.011a1.048 1.048 0 00.808.234l.598-.082-.087.135-7.956 3.345-1.586.22-.867-.715a1.046 1.046 0 00-.7-.243c-.253.008-.496.11-.686.288L.375 28.55c-.17.159-.29.37-.344.605a1.25 1.25 0 00.045.706l1.647 4.498c.073.2.195.373.354.502.16.13.348.21.547.233.038.006.077.01.116.01.02 0 .04 0 .06-.003l19.845-1.16c.404 1.771 1.337 3.351 2.658 4.5l5.064 4.414 2.233 1.947-1.59 1.148a4.88 4.88 0 00-1.794 2.542 5.232 5.232 0 00.045 3.188L3.274 57.883c-.283.068-.53.253-.685.515-.156.262-.208.58-.145.884a5.901 5.901 0 001.781 3.176l-2.135.51a1.06 1.06 0 00-.39.184 1.143 1.143 0 00-.295.331 1.254 1.254 0 00.028 1.302c.082.126.187.233.308.316.245.167.542.222.825.155l6.403-1.529h.004l55.512-13.25c.14-.034.273-.097.391-.185.118-.089.218-.201.295-.331a1.226 1.226 0 00.144-.884zM36.946 38.47l1.835 1.872-4.283 3.091-1.69-1.472 4.138-3.49zm-12.325-6.99a6.248 6.248 0 011.155-3.223l1.799-2.502 19.257-2.675c.197.8.236 1.635.114 2.45a6.18 6.18 0 01-.822 2.29 5.743 5.743 0 01-1.618 1.737 5.316 5.316 0 01-2.136.885L24.62 31.48zm-1.647-5.085l1.533-.213-.464.645a8.687 8.687 0 00-1.619 4.78l-9.093.532 6.764-3.023a1.09 1.09 0 00.316-.216l2.563-2.505zm22.822-5.534L25.792 23.64l2.393-2.339a7.045 7.045 0 001.728-2.76 7.456 7.456 0 00.345-3.303 5.56 5.56 0 00-.195-.931 38.21 38.21 0 0112.425 3.672 8.69 8.69 0 013.308 2.882zm-32.614-1.757l-.791-.654 1.806-3.582 1.722.36.109.906-2.846 2.97zm3.368-8.907l.721.596-.98 2.124-1.005-.21 1.264-2.51zm-8.504 3.769a4.499 4.499 0 01.543-2.777 4.035 4.035 0 012.053-1.79l4.366-1.695.06.5-4.798 9.08-.292-.185a4.093 4.093 0 01-1.307-1.325 4.437 4.437 0 01-.625-1.808zm7.028 6.436l2.872-2.999c.122-.127.214-.282.27-.454a1.25 1.25 0 00.052-.536l-.239-1.972 1.116-2.42 2.168 1.149-4.436 6.981-1.803.25zm1.183 4.527c.205-.086.38-.237.505-.432l6.468-10.179c.21-.33.482-.609.8-.818a2.53 2.53 0 011.042-.395l.058-.008a2.514 2.514 0 011.951.564 2.878 2.878 0 011.007 1.878c.09.74.011 1.494-.229 2.196a4.684 4.684 0 01-1.15 1.835l-7.632 7.462-10.012 4.474-.41-3.382 7.602-3.195zM4.109 28.172l.515.424c.114.095.244.164.383.204.138.04.283.05.425.03l1.085-.15.422 3.487-3.492.484-1.054-2.877 1.716-1.602zm20.773 5.64l6.902-.404 3.54 3.45-2.978 2.51-1.277 1.077-4.386-3.823a6.035 6.035 0 01-1.8-2.81zm6.544 17.34a2.724 2.724 0 01-.17-1.791c.149-.6.495-1.121.975-1.467l7.965-5.745 1.792 3.06-1.147 3.706-9.415 2.237zM5 59.872l57.286-13.674a3.641 3.641 0 01-.828 1.937 3.247 3.247 0 01-1.718 1.072h-.002L8.494 61.439a3.084 3.084 0 01-1.979-.19A3.358 3.358 0 015 59.872zm8.718 5.123L8.38 66.27a1.06 1.06 0 00-.39.185c-.118.089-.218.2-.296.33a1.254 1.254 0 00.028 1.302c.083.127.188.234.309.317.245.166.541.222.824.154l5.338-1.274c.282-.069.527-.255.682-.516.154-.262.206-.58.143-.882a1.174 1.174 0 00-.479-.732 1.034 1.034 0 00-.821-.158zm23.724-4.463a1.174 1.174 0 00-.48-.734 1.033 1.033 0 00-.825-.154l-16.014 3.823a1.056 1.056 0 00-.393.183c-.119.088-.22.2-.298.33a1.255 1.255 0 00.027 1.307c.083.126.189.234.31.316a1.022 1.022 0 00.829.15l16.014-3.821c.14-.034.273-.096.391-.185.118-.088.218-.2.295-.33a1.253 1.253 0 00.144-.884zm4.27.153c.08 0 .16-.01.238-.028l5.338-1.274a1.1 1.1 0 00.68-.517c.154-.262.205-.578.142-.88a1.175 1.175 0 00-.477-.732 1.033 1.033 0 00-.82-.16l-5.338 1.275a1.092 1.092 0 00-.653.462 1.235 1.235 0 00.16 1.555c.2.193.46.3.73.3zm18.979-6.903l-9.608 2.294a1.06 1.06 0 00-.393.183 1.13 1.13 0 00-.296.33 1.253 1.253 0 00.027 1.305c.083.127.188.235.31.317a1.022 1.022 0 00.828.152l9.608-2.293a1.06 1.06 0 00.39-.185c.118-.088.218-.2.295-.33a1.254 1.254 0 00-.028-1.302 1.131 1.131 0 00-.308-.316 1.023 1.023 0 00-.825-.155zm-11.86 7.634l-13.878 3.313a1.06 1.06 0 00-.392.183c-.119.088-.22.2-.297.33a1.253 1.253 0 00.027 1.305c.083.127.188.235.31.317a1.022 1.022 0 00.828.152l13.878-3.313a1.1 1.1 0 00.682-.516c.154-.262.206-.579.143-.881a1.174 1.174 0 00-.479-.733 1.033 1.033 0 00-.822-.157zm-19.818 4.73l-4.621 1.103a1.06 1.06 0 00-.393.184 1.13 1.13 0 00-.296.33 1.253 1.253 0 00.027 1.305c.083.127.188.235.31.317a1.024 1.024 0 00.827.152l4.621-1.103a1.1 1.1 0 00.682-.516c.154-.262.206-.579.143-.881a1.175 1.175 0 00-.479-.733 1.033 1.033 0 00-.821-.157z" fill="#000"/><path d="M53.92 37.39a1.174 1.174 0 00-.48-.735 1.033 1.033 0 00-.825-.155l-7.473 1.784a1.059 1.059 0 00-.393.183c-.119.088-.22.2-.298.33a1.257 1.257 0 00-.147.887c.032.152.091.294.174.42.083.127.189.235.31.317a1.024 1.024 0 00.829.15l7.475-1.783a1.1 1.1 0 00.684-.515c.156-.263.208-.58.145-.884zm-3.556 4.45l-3.203.765a1.06 1.06 0 00-.392.183c-.118.088-.22.2-.297.33a1.251 1.251 0 00.027 1.305c.083.127.188.235.31.317a1.022 1.022 0 00.828.152l3.203-.764c.281-.069.526-.255.681-.517.154-.261.206-.578.143-.88a1.174 1.174 0 00-.479-.733 1.034 1.034 0 00-.821-.158zM27.922 5.147c.08 0 .16-.01.238-.028l11.744-2.803a1.06 1.06 0 00.39-.185c.118-.088.218-.2.295-.33A1.255 1.255 0 0040.56.499a1.13 1.13 0 00-.308-.316 1.023 1.023 0 00-.825-.155L27.685 2.831a1.092 1.092 0 00-.652.462 1.235 1.235 0 00.158 1.555c.201.193.461.3.73.3zm7.12.73l-3.203.765c-.14.033-.274.095-.392.183-.119.089-.22.201-.297.331a1.255 1.255 0 00.027 1.305c.083.127.189.234.31.317a1.022 1.022 0 00.827.152l3.203-.765c.141-.032.275-.094.394-.183.118-.088.22-.2.297-.33a1.255 1.255 0 00-.027-1.307 1.13 1.13 0 00-.31-.317 1.023 1.023 0 00-.829-.15zm3.44.38c.031.15.09.292.172.419.083.126.188.233.309.316a1.02 1.02 0 00.825.154l6.405-1.529c.141-.033.275-.095.394-.183.118-.088.22-.2.297-.33a1.252 1.252 0 00-.027-1.307 1.128 1.128 0 00-.31-.317 1.023 1.023 0 00-.829-.15l-6.406 1.528c-.283.068-.53.253-.685.515-.156.263-.208.58-.145.884z" fill="#000"/></svg>