<svg width="73" height="73" fill="none" xmlns="http://www.w3.org/2000/svg"><path d="M46.325 50.764c-.382.15-.785.226-1.192.226-1.402 0-2.719-.91-3.231-2.385l-1.066-3.055 2.041-2.974 4.423.452 1.066 3.055c.658 1.89-.255 3.984-2.041 4.681z" fill="#3157AB"/><path d="M47.3 43.028l-3.871 1.51-2.593 1.011-3.31-9.494-2.574-7.383-2.734-7.843-1.468-4.207 6.466-2.522 1.079 3.093L42.89 30.38l4.41 12.649z" fill="#DD636E"/><path d="M43.43 44.538l-2.594 1.011-3.31-9.494-2.574-7.383 4.667 3.098 3.81 12.768z" fill="#DA4A54"/><path d="M42.89 30.38l-5.364 5.675-5.308-15.226 1.4-1.481c1.297-1.372 2.978-2.09 4.677-2.155L42.89 30.38zM27.07 53.16c0 2.014-1.542 3.645-3.445 3.645H10.703c-1.902 0-3.445-1.631-3.445-3.644 0-.479.088-.953.261-1.395.173-.442.427-.843.747-1.181a3.343 3.343 0 012.437-1.069h9.477l6.89 3.645z" fill="#DA4A54"/><path d="M27.07 34.489V53.16l-6.89-3.645V34.49h6.89z" fill="#3157AB"/><path d="M40.903 17.39c-2.72-2.877-7.13-2.877-9.85 0l-11.08 11.723 9.85 10.422 11.08-11.723c2.72-2.878 2.72-7.543 0-10.421z" fill="#DD636E"/><path d="M41.845 18.627c-2.695-1.832-6.325-1.501-8.684.995L22.08 31.343l-2.109-2.23 11.08-11.723c2.72-2.878 7.132-2.878 9.852 0 .354.375.67.79.94 1.236z" fill="#DA4A54"/><path d="M35.043 45.057l-1.563 4.215-3.31.939-10.184-10.773c-2.69-2.848-2.69-7.463 0-10.31l15.057 15.93z" fill="#26457D"/><path d="M37.06 48.702v5.344c0 2.013-1.542 3.644-3.445 3.644-1.902 0-3.445-1.631-3.445-3.644V50.21l4.873-5.154 1.008 1.068c.32.338.574.74.747 1.182.173.442.262.916.262 1.395z" fill="#DD636E"/><path d="M32.314 48.027v1.576l-2.144.608-10.184-10.774c-2.69-2.847-2.69-7.462 0-10.31l2.073 2.195c-1.114 2.673-.638 5.91 1.432 8.102l8.823 8.603z" fill="#3157AB"/><path d="M30.17 54.187v-3.976l2.103-2.225.041.041v6.218l-2.144-.058z" fill="#DA4A54"/><path d="M53.26 55.455a1.55 1.55 0 01-.621-.13 1.616 1.616 0 01-.527-.374L29.737 31.28a1.789 1.789 0 010-2.43 1.561 1.561 0 012.297 0l22.374 23.672a1.79 1.79 0 010 2.43c-.15.16-.33.286-.526.372a1.54 1.54 0 01-.622.13z" fill="#E7A561"/><path d="M54.82 54.217a1.73 1.73 0 01-.41.734c-.152.16-.33.287-.528.373a1.545 1.545 0 01-1.243 0 1.618 1.618 0 01-.527-.373l-22.374-23.67a1.788 1.788 0 010-2.43c.193-.206.432-.355.695-.435a1.812 1.812 0 00-.014.906c.072.298.219.57.424.788L53.22 53.782c.15.16.33.287.526.373a1.54 1.54 0 001.075.062z" fill="#E4936B"/><path d="M71.93 62.924c0 1.41-1.08 2.553-2.412 2.553H61.6c-.73 0-1.432-.307-1.949-.854l-8.63-9.131a1.079 1.079 0 01-.22-.348 1.127 1.127 0 01.22-1.17l2.463-2.605c.094-.1.206-.18.329-.233a.967.967 0 011.105.232l7.824 8.278h6.089c1.711 0 3.099 1.467 3.099 3.278z" fill="#26457D"/><path d="M71.893 63.369c-.198 1.198-1.186 2.108-2.376 2.108h-7.916a2.63 2.63 0 01-1.054-.222 2.75 2.75 0 01-.894-.632l-8.632-9.13a1.119 1.119 0 010-1.518l.751-.793c.026.238.127.46.288.63l8.63 9.13a2.683 2.683 0 001.95.854h7.916a2.31 2.31 0 001.337-.427z" fill="#3157AB"/><path d="M37.236 21.075H27.26l2.643 2.796-1.578 3.342-3.294 1.812-8.468-8.959c-.904-.956-1.287-2.357-.927-3.653a3.653 3.653 0 011.24-1.897 3.322 3.322 0 012.067-.73h18.293v7.29z" fill="#DD636E"/><path d="M32.286 31.545c-.32.34-.7.608-1.118.792a3.273 3.273 0 01-2.637 0 3.432 3.432 0 01-1.116-.792l-2.383-2.52 4.873-5.154 2.38 2.52c1.347 1.424 1.347 3.732 0 5.154z" fill="#26457D"/><path d="M27.383 27.73l-2.352 1.295-8.468-8.958c-.904-.957-1.287-2.358-.927-3.654.141-.514.388-.99.723-1.391a3.445 3.445 0 011.213-.934 3.719 3.719 0 00-.149.434c-.36 1.296.024 2.697.928 3.654l8.467 8.958h.002l.563.596z" fill="#DA4A54"/><path d="M33.01 30.419c-.171.42-.417.803-.724 1.127-.32.339-.7.608-1.118.791a3.273 3.273 0 01-2.637 0 3.429 3.429 0 01-1.116-.791l-2.383-2.52 1.788-1.892 2.382 2.52c.32.34.699.609 1.117.792a3.264 3.264 0 002.692-.027z" fill="#3157AB"/><path d="M41.962 22.118c-3.596 0-6.51-3.084-6.51-6.889V9.76c0-3.805 2.914-6.889 6.51-6.889 3.596 0 6.511 3.084 6.511 6.889v5.47c0 3.805-2.915 6.889-6.51 6.889z" fill="#FFDDCE"/><path d="M43.88 21.814a6.197 6.197 0 01-1.918.303c-3.595 0-6.51-3.082-6.51-6.888V9.76c0-3.804 2.915-6.888 6.51-6.888.668 0 1.313.106 1.918.305-2.659.865-4.592 3.486-4.592 6.583v5.47c0 3.098 1.933 5.718 4.592 6.585z" fill="#FFCBBE"/><path d="M49.313 9.759h-8.734v.971c0 2.287-1.753 4.141-3.915 4.141-2.161 0-3.914-1.854-3.914-4.141v-.971c0-4.765 3.651-8.628 8.155-8.628h.253c4.503 0 8.154 3.863 8.154 8.628z" fill="#26457D"/><path d="M36.816 9.759v.97c-.001.545.1 1.083.296 1.586.197.502.486.959.85 1.343.222.234.468.44.735.613a3.754 3.754 0 01-2.032.6 3.797 3.797 0 01-2.768-1.213 4.147 4.147 0 01-.85-1.343 4.333 4.333 0 01-.297-1.585v-.971c0-4.766 3.652-8.628 8.155-8.628h.254c.656 0 1.294.082 1.906.238-3.586.907-6.25 4.319-6.25 8.39z" fill="#3157AB"/><path d="M46.034 71.762H29.436v-2.408c0-1.085.832-1.966 1.859-1.966l5.765-1.716 4.84 1.716c2.283 0 4.134 1.958 4.134 4.374z" fill="#F9F6F6"/><path d="M38.211 66.08l-4.396 1.308c-1.026 0-1.858.88-1.858 1.967v2.407h-2.52v-2.407c0-1.086.831-1.967 1.858-1.967l5.765-1.716 1.151.409z" fill="#DDDAEC"/><path d="M39.833 60.267h-.911l-1.208-2.174 1.208-.886V54.2h-9.627v9.617c0 1.972 1.51 3.57 3.374 3.57H41.9c1.288 0 2.332-1.104 2.332-2.467 0-2.57-1.97-4.654-4.399-4.654z" fill="#26457D"/><path d="M36.458 67.387h-3.79c-1.863 0-3.373-1.597-3.373-3.568V54.2h3.79v9.618c0 1.97 1.51 3.568 3.373 3.568z" fill="#3157AB"/><path d="M34.91 57.207h4.012v3.06H34.91c-.798 0-1.446-.685-1.446-1.53s.648-1.53 1.446-1.53z" fill="#DA4A54"/><path d="M1.07 65.676v-17.56h2.275c1.026 0 1.858.88 1.858 1.967l1.622 6.1-1.622 5.12c0 2.415-1.85 4.373-4.134 4.373z" fill="#F9F6F6"/><path d="M6.44 57.4l-1.237-4.65c0-1.087-.832-1.967-1.859-1.967H1.07v-2.667h2.275c1.027 0 1.86.88 1.86 1.967l1.621 6.1L6.44 57.4z" fill="#DDDAEC"/><path d="M11.934 59.116v-.964l2.055-1.279.837 1.279h2.841V47.967h-9.09c-1.864 0-3.374 1.598-3.374 3.57v9.766c0 1.362 1.044 2.467 2.332 2.467 2.43 0 4.399-2.084 4.399-4.654z" fill="#26457D"/><path d="M5.204 55.544v-4.009c0-1.97 1.51-3.568 3.373-3.568h9.09v4.008h-9.09c-1.863 0-3.373 1.598-3.373 3.57z" fill="#3157AB"/><path d="M14.827 53.908v4.244h-2.893v-4.244c0-.846.648-1.53 1.446-1.53.8 0 1.447.685 1.447 1.53z" fill="#DA4A54"/><path d="M60.964 71.762c1.958 0 3.545-1.68 3.545-3.75 0-2.072-1.587-3.752-3.545-3.752s-3.545 1.68-3.545 3.751c0 2.072 1.587 3.75 3.545 3.75z" fill="#F6E266"/><path d="M62.26 71.502c-.412.172-.852.26-1.296.259-1.958 0-3.545-1.679-3.545-3.75 0-2.073 1.587-3.751 3.545-3.751.457 0 .895.091 1.297.259-1.318.546-2.25 1.904-2.25 3.492 0 1.587.932 2.945 2.25 3.49z" fill="#FFD064"/><path d="M68.833 58.513h-5.647l-2.419-2.558a1.04 1.04 0 00-.756-.332c-.283 0-.555.12-.756.332-.2.212-.313.5-.313.8 0 .3.113.587.313.8l2.732 2.89c.1.105.217.188.347.245.13.057.269.086.41.086h6.089c1.118 0 2.029.964 2.029 2.148 0 .784-.603 1.421-1.343 1.421h-5.513a4.452 4.452 0 00-3.042-1.216c-.373 0-.735.048-1.082.137l-8.065-8.533 2.386-2.524 2.051 2.17c.2.213.473.332.756.332.284 0 .556-.12.756-.332.2-.212.313-.5.313-.8 0-.3-.112-.587-.313-.8l-2.09-2.21a2.07 2.07 0 00-.676-.48 1.975 1.975 0 00-.798-.167H54.2c-.22 0-.433.038-.636.107l-4.252-4.498-6.46-18.535a8.845 8.845 0 001.15-4.044c3.192-.945 5.54-4.048 5.54-7.723v-4.366c.48-.111.84-.563.84-1.104C50.382 4.378 46.244 0 41.158 0h-.253c-5.086 0-9.224 4.378-9.224 9.759v.971c0 .68.123 1.328.345 1.925h-5.619c-.284 0-.556.12-.756.332-.2.212-.313.5-.313.8 0 .3.112.587.313.8.2.212.472.33.756.33h7.234c.235.19.484.357.746.5.094 4.292 3.389 7.76 7.452 7.83a6.379 6.379 0 01-1.693 3.765l-4.169 4.41-1.661-1.758c.03-.228.047-.46.047-.695 0-1.276-.47-2.475-1.321-3.376l-3.2-3.386h4.093c.284 0 .556-.12.756-.332.2-.212.313-.5.313-.8 0-.3-.112-.587-.313-.8a1.04 1.04 0 00-.756-.33h-6.232L26.2 18.352a1.04 1.04 0 00-.756-.332c-.284 0-.556.12-.756.332-.2.212-.313.5-.313.8 0 .3.112.588.313.8l1.817 1.922.006.006 1.88 1.99-3.359 3.554-7.711-8.159c-.65-.686-.902-1.657-.657-2.536.299-1.084 1.215-1.812 2.28-1.812h3.19c.283 0 .555-.12.756-.331.2-.213.313-.5.313-.8 0-.3-.113-.588-.314-.8a1.04 1.04 0 00-.756-.332h-3.19c-1.992 0-3.774 1.415-4.331 3.438a5.027 5.027 0 001.196 4.773l5.225 5.528s-1.918 2.04-1.958 2.107c-2.905 3.251-2.893 8.368.037 11.604v8.28h-.374v-.418c0-.3-.112-.588-.313-.8a1.04 1.04 0 00-.756-.331h-9.09a4.296 4.296 0 00-3.006 1.242c-.537-.668-1.336-1.093-2.227-1.093H1.069c-.283 0-.555.12-.756.332-.2.212-.313.5-.313.8v17.56c0 .3.113.587.313.8.2.212.473.33.756.33 1.871 0 3.514-1.05 4.431-2.622a3.263 3.263 0 002.035.716c2.963 0 5.382-2.505 5.466-5.618h4.667c.283 0 .555-.119.756-.331.2-.212.313-.5.313-.8v-.215h4.888c2.49 0 4.515-2.142 4.515-4.776v-3.5l.961 1.018v2.41c-.498.097-.876.557-.876 1.112v9.618c0 1.225.446 2.342 1.174 3.18a3.165 3.165 0 00-1.032 2.356v2.407c0 .3.112.588.313.8.2.212.473.331.756.331h16.598c.283 0 .555-.119.756-.33.2-.213.313-.5.313-.8 0-1.98-.993-3.719-2.48-4.689.441-.62.679-1.376.678-2.153 0-3.134-2.368-5.694-5.31-5.783V54.2c0-.3-.113-.588-.313-.8a1.04 1.04 0 00-.756-.331h-.792V48.7c0-1.275-.47-2.474-1.324-3.377l-5.471-5.79 2.346-2.482 4.837 5.117 2.38 6.827c.65 1.87 2.351 3.126 4.234 3.126a4.293 4.293 0 002.212-.614l2.411 2.55c-.066.218-.1.446-.1.675 0 .589.217 1.143.61 1.559l7.633 8.075a4.997 4.997 0 00-1.549 3.644c0 2.692 2.07 4.882 4.615 4.882 2.544 0 4.614-2.19 4.614-4.882 0-.488-.069-.959-.195-1.403h4.135c1.92 0 3.482-1.653 3.482-3.684 0-2.432-1.87-4.41-4.167-4.41zM2.139 64.341V49.248h1.206c.209 0 .41.088.558.245a.86.86 0 01.23.59v11.22c0 1.39-.83 2.578-1.994 3.038zm10.865-7.32v-3.114c0-.22.169-.398.377-.398a.39.39 0 01.377.398v3.113h-.754zm3.595 0h-.703v-3.114c0-1.467-1.128-2.661-2.515-2.661-1.388 0-2.516 1.194-2.516 2.661v5.209c0 1.942-1.494 3.522-3.33 3.522-.696 0-1.262-.599-1.262-1.335v-9.767c0-1.344 1.033-2.438 2.304-2.438H16.6v7.922zm17.22-47.262c0-4.134 3.179-7.496 7.086-7.496h.253c3.543 0 6.487 2.766 7.005 6.365h-7.584c-.284 0-.556.119-.756.33-.2.213-.314.5-.314.8v.972c0 1.66-1.276 3.01-2.845 3.01-1.568 0-2.845-1.35-2.845-3.01v-.971zM36.572 16l.093.003c2.698 0 4.901-2.28 4.982-5.113h5.758v4.339c0 3.175-2.441 5.758-5.442 5.758-2.753 0-5.033-2.175-5.39-4.987zm4.706 13.016L45.7 41.71l-8.211-8.688 3.786-4.006zm10.612 22.44l-.784.83-18.48-19.552a4.68 4.68 0 00.784-.83l18.48 19.553zM29.903 25.472l1.626 1.722c.221.232.397.51.516.814.12.305.18.632.18.962 0 .671-.248 1.302-.696 1.776-.22.235-.481.42-.77.547a2.246 2.246 0 01-.909.19 2.247 2.247 0 01-.91-.19 2.355 2.355 0 01-.77-.547l-1.627-1.72 3.36-3.554zm-6.278 30.203h-4.888v-5.026h1.19l5.99 3.168c-.274 1.068-1.196 1.858-2.292 1.858zm2.376-4.343l-4.751-2.514v-6.444L26 47.4v3.932zm-5.259-12.694c-2.01-2.128-2.24-5.438-.687-7.836L33.53 45.057l-3.36 3.553-9.428-9.973zm9.764 31.993v-1.276a.86.86 0 01.231-.59.768.768 0 01.558-.245H41.9c1.314 0 2.437.88 2.872 2.111H30.506zm12.657-5.709c0 .737-.567 1.336-1.263 1.336h-9.231c-1.271 0-2.305-1.094-2.305-2.439v-8.486h7.488v.743H34.91c-1.387 0-2.516 1.194-2.516 2.662s1.13 2.661 2.516 2.661h4.923c1.836 0 3.33 1.58 3.33 3.523zm-8.253-5.785a.389.389 0 01-.377-.4c0-.22.17-.398.377-.398h2.942v.798H34.91zm1.081-6.066H31.24V50.68l3.802-4.022.252.267c.445.472.695 1.11.697 1.777v4.369zm-6.168-15.136l-8.338-8.82 1.059-1.12 4.113 4.35c.851.904 1.985 1.4 3.193 1.4.22 0 .44-.016.658-.05l1.661 1.758-2.346 2.482zm15.31 11.925c-.99 0-1.886-.661-2.229-1.645l-.775-2.224 3.583 3.79a2.24 2.24 0 01-.58.079zm15.831 20.77c-1.365 0-2.476-1.175-2.476-2.619 0-1.444 1.111-2.62 2.476-2.62s2.476 1.176 2.476 2.62c0 1.444-1.11 2.62-2.476 2.62z" fill="#000"/></svg>