<svg width="68" height="72" fill="none" xmlns="http://www.w3.org/2000/svg"><path d="M64.812 54.586c-1.768-.039-3.232 1.465-3.268 3.36l-.076 3.9c-.018.962-.513 1.858-1.29 2.338-1.232.763-2.814.309-3.525-1.012L43.9 39.505 24.028 4.411a2.852 2.852 0 00-.06-2.567l-.269-.5C23.006.059 21.473-.382 20.273.36l-1.748 1.082c-1.2.742-1.61 2.385-.918 3.67l.269.5c.441.82 1.224 1.293 2.045 1.339l18.43 35.986 12.754 23.667c2.478 4.598 7.985 6.18 12.277 3.525 2.705-1.674 4.426-4.793 4.491-8.14l.075-3.9c.037-1.896-1.367-3.463-3.136-3.503z" fill="#42C398"/><path d="M18.525 1.442l.738-.457c.059.204.139.401.238.587l.27.5c.44.819 1.195 1.31 1.972 1.383l31.236 59.62c2.478 4.599 7.732 6.337 11.712 3.875 1.302-.806 2.341-2.003 3.035-3.427-.474 2.744-2.058 5.19-4.344 6.605-4.292 2.655-9.8 1.074-12.277-3.524L38.352 42.937 19.92 6.95c-.82-.046-1.604-.52-2.045-1.339l-.27-.5c-.692-1.285-.28-2.928.919-3.67z" fill="#21A17D"/><path d="M50.611 51.96l-4.22-7.832-3.265 7.669 4.22 7.833 3.265-7.67z" fill="#E9A761"/><path d="M47.346 59.63l-4.22-7.833 1.666-3.915 4.22 7.833-1.666 3.915z" fill="#E38523"/><path d="M43.25 38.354L24.027 4.411a2.851 2.851 0 00-.06-2.567l-.269-.5C23.006.06 21.473-.38 20.273.361l-1.748 1.081c-1.2.742-1.61 2.386-.918 3.67l.27.5c.44.82 1.224 1.294 2.044 1.339l17.826 34.807 5.502-3.404z" fill="#252225"/><path d="M17.43 2.828a2.636 2.636 0 011.095-1.386l.738-.457c.33 1.13 1.125 2.223 2.272 2.44a.443.443 0 01.317.242L40.556 40.02l-2.81 1.738L19.921 6.95a2.458 2.458 0 01-1.763-.915c-.737-.906-1.124-2.072-.729-3.208z" fill="#544F56"/><path d="M3.137 54.586c1.769-.039 3.232 1.465 3.269 3.36l.075 3.9c.018.962.513 1.858 1.29 2.338 1.232.763 2.814.309 3.526-1.012L24.05 39.505 43.922 4.411a2.852 2.852 0 01.059-2.567l.27-.5C44.942.059 46.476-.382 47.675.36l1.749 1.082c1.2.742 1.61 2.385.918 3.67l-.27.5c-.441.82-1.224 1.293-2.045 1.339l-18.43 35.986-12.753 23.667c-2.478 4.598-7.986 6.18-12.277 3.525C1.862 68.455.14 65.336.076 61.989L0 58.089c-.037-1.896 1.367-3.463 3.136-3.503z" fill="#42C398"/><path d="M49.425 1.442l-.74-.457a2.991 2.991 0 01-.237.587l-.27.5c-.44.819-1.195 1.31-1.972 1.383L14.97 63.075c-2.478 4.599-7.732 6.337-11.711 3.875-1.303-.806-2.342-2.003-3.036-3.427.474 2.744 2.058 5.19 4.345 6.605 4.291 2.655 9.799 1.074 12.276-3.524l12.754-23.667L48.028 6.95c.82-.046 1.604-.52 2.045-1.339l.27-.5c.692-1.285.281-2.928-.918-3.67z" fill="#21A17D"/><path d="M17.338 51.96l4.221-7.832 3.265 7.669-4.221 7.833-3.265-7.67z" fill="#E9A761"/><path d="M20.603 59.63l4.22-7.833-1.666-3.915-4.22 7.833 1.666 3.915z" fill="#E38523"/><path d="M24.7 38.354L43.922 4.411a2.852 2.852 0 01.059-2.567l.27-.5C44.942.06 46.476-.38 47.675.361l1.749 1.081c1.2.742 1.61 2.386.918 3.67l-.27.5c-.441.82-1.224 1.294-2.045 1.339L30.203 41.758 24.7 38.354z" fill="#252225"/><path d="M50.52 2.828a2.636 2.636 0 00-1.095-1.386l-.74-.457c-.328 1.13-1.123 2.223-2.27 2.44a.434.434 0 00-.185.082.473.473 0 00-.133.16L27.394 40.02l2.809 1.738L48.028 6.95a2.459 2.459 0 001.763-.915c.738-.906 1.124-2.072.729-3.208z" fill="#544F56"/><path d="M33.975 55.415c-2.99 0-5.413 2.596-5.413 5.798 0 3.203 2.424 5.8 5.413 5.8 2.989 0 5.412-2.597 5.412-5.8 0-3.202-2.423-5.798-5.412-5.798z" fill="#E38523"/><path d="M36.614 56.151c.452.864.689 1.838.688 2.828 0 3.203-2.423 5.8-5.412 5.8a5.108 5.108 0 01-2.64-.737c.926 1.772 2.694 2.97 4.725 2.97 2.989 0 5.412-2.596 5.412-5.799 0-2.175-1.119-4.07-2.773-5.062z" fill="#E38523"/></svg>