<svg width="70" height="75" viewBox="0 0 70 75" fill="none" xmlns="http://www.w3.org/2000/svg">
<path d="M68.384 46.6375V50.85C68.3808 52.1759 67.9848 53.4665 67.253 54.5358C66.5213 55.6051 65.4916 56.3979 64.3124 56.8C58.6774 58.7613 47.9242 59.6063 39.2174 57.5375C33.3214 56.1459 27.496 54.4312 21.764 52.4C21.6999 52.5388 21.7174 52.3113 21.7174 53.75C21.7155 54.4124 21.4691 55.0472 21.0319 55.5156C20.5947 55.984 20.0023 56.248 19.384 56.25H4.21737C3.5991 56.248 3.00668 55.984 2.56949 55.5156C2.13231 55.0472 1.88588 54.4124 1.88403 53.75V41.4125C2.41946 37.1445 3.1987 32.9158 4.21737 28.75C6.07092 20.6716 6.5921 12.3082 5.75737 4.0375C5.71949 3.68693 5.75131 3.33174 5.85075 2.9953C5.95018 2.65885 6.11497 2.34877 6.33428 2.08546C6.55359 1.82215 6.82245 1.61157 7.12317 1.46757C7.42388 1.32357 7.74965 1.24943 8.07903 1.25H28.309C28.6455 1.25105 28.9777 1.33004 29.283 1.48155C29.5882 1.63305 29.8593 1.8535 30.0776 2.12777C30.2959 2.40203 30.4563 2.72364 30.5477 3.07053C30.6392 3.41742 30.6595 3.7814 30.6074 4.1375C28.1422 21.7888 35.26 31.02 45.389 34C48.735 34.95 52.1277 35.7 55.5507 36.25C65.339 37.8625 67.8357 43.1125 68.384 46.6375Z" fill="#02A9F4"/>
<path d="M68.3838 46.6375V50.85C68.3806 52.1759 67.9846 53.4665 67.2528 54.5358C66.5211 55.6051 65.4914 56.3979 64.3122 56.8C59.1916 58.3149 53.881 58.9602 48.5738 58.7125C52.7155 58.6625 56.8303 58.02 60.8122 56.8C61.9914 56.3979 63.0211 55.6051 63.7528 54.5358C64.4846 53.4665 64.8806 52.1759 64.8838 50.85V46.6375C64.3355 43.1125 61.8388 37.8625 52.0505 36.25C48.6273 35.7004 45.235 34.9492 41.8888 34C31.7598 31.02 24.6455 21.7875 27.1072 4.1375C27.1593 3.7814 27.139 3.41742 27.0475 3.07053C26.9561 2.72364 26.7957 2.40203 26.5774 2.12776C26.3591 1.8535 26.088 1.63305 25.7828 1.48154C25.4775 1.33004 25.1453 1.25105 24.8088 1.25H28.3088C28.6453 1.25105 28.9775 1.33004 29.2828 1.48154C29.588 1.63305 29.8591 1.8535 30.0774 2.12776C30.2957 2.40203 30.4561 2.72364 30.5475 3.07053C30.639 3.41742 30.6593 3.7814 30.6072 4.1375C28.1455 21.7875 35.2598 31.02 45.3888 34C48.7348 34.95 52.1275 35.7 55.5505 36.25C65.3388 37.8625 67.8355 43.1125 68.3838 46.6375Z" fill="#0377BC"/>
<path d="M7.71729 56.25H15.884V66.25H7.71729V56.25ZM47.384 58.65V66.25H39.2173V57.5375C41.9053 58.1537 44.6376 58.525 47.384 58.65Z" fill="#C99206"/>
<path d="M68.384 49.125V50.85C68.3808 52.1759 67.9848 53.4665 67.253 54.5358C66.5213 55.6051 65.4916 56.3979 64.3124 56.8C58.6774 58.7613 47.9242 59.6063 39.2174 57.5375C33.3214 56.1459 27.496 54.4312 21.764 52.4C21.6999 52.5388 21.7174 52.3113 21.7174 53.75C21.7155 54.4124 21.4691 55.0472 21.0319 55.5156C20.5947 55.984 20.0023 56.248 19.384 56.25H4.21737C3.5991 56.248 3.00668 55.984 2.56949 55.5156C2.13231 55.0472 1.88588 54.4124 1.88403 53.75V43.45C25.2932 46.755 21.2005 46.075 22.709 46.6375C29.9785 49.3975 39.4215 52.2 47.1157 52.475C53.8135 52.7375 63.6777 51.1 68.384 49.125Z" fill="#747B7D"/>
<path d="M68.384 49.125V50.85C68.3807 52.1759 67.9847 53.4665 67.253 54.5358C66.5212 55.6051 65.4916 56.3979 64.3123 56.8C59.1917 58.3149 53.8811 58.9602 48.574 58.7125C52.7156 58.6625 56.8305 58.02 60.8123 56.8C61.9916 56.3979 63.0212 55.6051 63.753 54.5358C64.4847 53.4665 64.8807 52.1759 64.884 50.85V50.2875C66.0725 49.9802 67.2416 49.5919 68.384 49.125Z" fill="#DCA108"/>
<path d="M60.2172 73.75H3.89054C3.64653 73.7481 3.40905 73.6654 3.21063 73.5132C3.01222 73.361 2.86257 73.1469 2.7822 72.9L1.23054 67.9C1.17117 67.7117 1.15458 67.5109 1.18212 67.3144C1.20967 67.1178 1.28057 66.9312 1.38893 66.7698C1.49729 66.6085 1.64 66.4772 1.80521 66.3868C1.97042 66.2964 2.15336 66.2495 2.33887 66.25H60.2172C61.232 66.3228 62.2449 66.0825 63.1361 65.5574C64.0273 65.0324 64.7594 64.2446 65.2455 63.2875C65.3552 63.0703 65.5228 62.8931 65.7269 62.7784C65.931 62.6637 66.1624 62.6168 66.3915 62.6436C66.6206 62.6705 66.837 62.7698 67.0132 62.929C67.1893 63.0882 67.3172 63.3001 67.3805 63.5375C68.5122 67.6125 68.7922 73.75 60.2172 73.75Z" fill="#707070"/>
<path d="M56.7172 73.75H3.89054C3.64653 73.7481 3.40905 73.6654 3.21063 73.5132C3.01222 73.3611 2.86257 73.1469 2.7822 72.9L1.23054 67.9C1.17117 67.7117 1.15458 67.511 1.18212 67.3144C1.20967 67.1178 1.28057 66.9312 1.38893 66.7698C1.49729 66.6085 1.64 66.4772 1.80521 66.3868C1.97042 66.2964 2.15336 66.2495 2.33887 66.25H60.2172C61.6642 66.3266 63.0823 65.7977 64.1722 64.775C64.9889 68.7375 64.4639 73.75 56.7172 73.75Z" fill="#9E9E9E"/>
<path d="M21.4024 46.2L1.88403 43.45V41.4125C2.28187 38.03 2.86287 34.675 3.62237 31.3625C7.99737 31.8375 19.2324 34.2125 21.4024 46.2Z" fill="#DCA108"/>
<path d="M23.8558 15.2888C25.7495 15.2888 27.2847 13.644 27.2847 11.615C27.2847 9.58608 25.7495 7.94128 23.8558 7.94128C21.9621 7.94128 20.427 9.58608 20.427 11.615C20.427 13.644 21.9621 15.2888 23.8558 15.2888Z" fill="#DCA108"/>
<path d="M64.6751 57.9925C66.0906 57.5094 67.326 56.5564 68.2025 55.2712C69.079 53.986 69.5511 52.4354 69.5506 50.8437C69.5506 48.96 69.5576 46.5812 69.5343 46.4325C68.9906 42.9325 66.4706 36.785 55.7256 35.015C52.2991 34.5477 48.9118 33.7954 45.5943 32.765C45.6674 32.467 45.6342 32.1505 45.5011 31.8774C45.3679 31.6043 45.1445 31.3942 44.8745 31.2883C44.6045 31.1823 44.3073 31.1881 44.041 31.3044C43.7748 31.4208 43.5586 31.6394 43.4348 31.9175C42.1999 31.4825 41.0092 30.9146 39.8811 30.2225C40.0634 29.9817 40.1546 29.6763 40.1366 29.3669C40.1187 29.0575 39.9928 28.7666 39.7841 28.5519C39.5753 28.3371 39.2989 28.2143 39.0096 28.2077C38.7203 28.2011 38.4392 28.3113 38.2221 28.5162L37.9701 28.75C36.9608 27.8495 36.0542 26.8245 35.2693 25.6962L35.9016 25.4288C36.0471 25.3709 36.1804 25.2824 36.2936 25.1687C36.4068 25.0549 36.4976 24.9181 36.5609 24.7663C36.6241 24.6144 36.6584 24.4506 36.6618 24.2843C36.6652 24.1181 36.6376 23.9528 36.5807 23.7981C36.5237 23.6434 36.4385 23.5025 36.3301 23.3835C36.2216 23.2646 36.0921 23.17 35.9491 23.1053C35.8061 23.0407 35.6526 23.0072 35.4974 23.0069C35.3422 23.0067 35.1885 23.0396 35.0453 23.1037L33.9778 23.5562C33.3422 22.3163 32.8217 21.0126 32.4238 19.6637L33.5485 19.4638C33.8535 19.4092 34.1258 19.2272 34.3056 18.9577C34.4855 18.6881 34.5581 18.3531 34.5075 18.0262C34.484 17.8634 34.4305 17.7073 34.3498 17.567C34.2692 17.4267 34.1633 17.3051 34.0381 17.2093C33.913 17.1136 33.7713 17.0456 33.6212 17.0094C33.4712 16.9733 33.316 16.9696 33.1646 16.9987L31.8241 17.2375C31.5042 15.6166 31.3141 13.9693 31.256 12.3137L32.3491 12.18C32.5052 12.1668 32.6572 12.12 32.7961 12.0425C32.935 11.965 33.0579 11.8583 33.1575 11.7289C33.257 11.5994 33.3313 11.4498 33.3758 11.2889C33.4202 11.1281 33.434 10.9593 33.4163 10.7926C33.3986 10.6259 33.3498 10.4647 33.2727 10.3187C33.1956 10.1726 33.0919 10.0447 32.9677 9.9425C32.8435 9.84032 32.7014 9.76596 32.5498 9.72387C32.3983 9.68178 32.2403 9.67281 32.0855 9.6975L31.2688 9.7975C31.3311 7.96602 31.4963 6.14022 31.7635 4.33C31.8416 3.79511 31.8107 3.24842 31.673 2.72753C31.5352 2.20663 31.2938 1.72388 30.9653 1.31245C30.6368 0.901018 30.2291 0.570671 29.7702 0.344114C29.3112 0.117557 28.8119 0.000162447 28.3066 3.83918e-09H8.07895C7.58515 -2.39354e-05 7.09693 0.111907 6.64637 0.328439C6.19582 0.544971 5.79312 0.861201 5.46476 1.25635C5.13639 1.6515 4.88978 2.11663 4.74114 2.62116C4.59249 3.1257 4.54517 3.65822 4.60229 4.18375C5.40729 12.3075 4.89395 20.5187 3.08562 28.455C2.04242 32.6929 1.25562 36.9985 0.730119 41.345C0.717285 41.7113 0.717285 43.2088 0.717285 53.75C0.717285 54.7446 1.08603 55.6984 1.74241 56.4016C2.39879 57.1049 3.28903 57.5 4.21729 57.5H6.55062V65H2.33662C1.96656 64.9994 1.60169 65.0932 1.27212 65.2735C0.942555 65.4538 0.657743 65.7156 0.441199 66.0371C0.224656 66.3586 0.0825918 66.7307 0.0267345 67.1226C-0.0291227 67.5146 0.00282897 67.9151 0.119952 68.2912L1.67512 73.2912C1.83026 73.7894 2.12789 74.2226 2.52578 74.5293C2.92367 74.8361 3.40161 75.0007 3.89179 75H60.2173C67.7108 75 70.4898 70.3575 68.5006 63.1838C68.3699 62.71 68.1111 62.2884 67.757 61.9721C67.4028 61.6559 66.9691 61.4591 66.5107 61.4067C66.0522 61.3542 65.5895 61.4485 65.181 61.6776C64.7725 61.9067 64.4365 62.2603 64.2155 62.6937C63.8335 63.4558 63.2508 64.0808 62.5399 64.4908C61.8291 64.9009 61.0214 65.0779 60.2173 65H48.5506V59.965C53.3911 60.0863 60.1636 59.5488 64.6751 57.9925ZM6.92045 3.9025C6.90029 3.72675 6.91521 3.54841 6.96422 3.3793C7.01323 3.21019 7.09522 3.05417 7.20475 2.92157C7.31429 2.78896 7.44886 2.68281 7.59957 2.61013C7.75028 2.53746 7.91368 2.49992 8.07895 2.5H28.3066C28.4747 2.49886 28.6409 2.53735 28.7936 2.61274C28.9462 2.68813 29.0815 2.79858 29.1898 2.93625C29.8805 3.7975 29.0848 4.13125 28.9378 10.0812L28.2261 10.1688C27.8893 9.03765 27.1798 8.07654 26.2301 7.46482C25.2804 6.85311 24.1553 6.6326 23.065 6.84446C21.9746 7.05632 20.9935 7.68607 20.3048 8.61615C19.616 9.54624 19.2667 10.7131 19.322 11.8989C19.3774 13.0847 19.8336 14.2084 20.6055 15.0602C21.3774 15.912 22.4123 16.4338 23.5169 16.5281C24.6215 16.6223 25.7204 16.2827 26.6084 15.5725C27.4965 14.8624 28.1129 13.8302 28.3428 12.6688L28.9763 12.5912C29.0591 14.2862 29.2645 15.9712 29.5911 17.6325L25.5673 18.35C25.2697 18.413 25.0067 18.5976 24.8341 18.8648C24.6614 19.1321 24.5927 19.4608 24.6424 19.7814C24.6922 20.102 24.8566 20.3892 25.1007 20.5822C25.3447 20.7751 25.6494 20.8586 25.95 20.815L30.1733 20.065C30.6003 21.5825 31.1626 23.0525 31.8498 24.4575L27.8831 26.1363C27.5974 26.2596 27.3687 26.499 27.2471 26.8023C27.1255 27.1056 27.1208 27.4481 27.234 27.7551C27.3472 28.0621 27.5692 28.3086 27.8515 28.4409C28.1337 28.5732 28.4534 28.5805 28.7406 28.4612L33.0678 26.625C33.9568 28.0181 35.0061 29.2856 36.191 30.3975L33.93 32.5C33.7056 32.7197 33.5702 33.0245 33.5524 33.3495C33.5346 33.6745 33.6359 33.9942 33.8348 34.2404C34.0336 34.4867 34.3142 34.6401 34.617 34.668C34.9198 34.696 35.2208 34.5962 35.456 34.39L38.0728 31.9625C39.4138 32.9186 40.8553 33.7023 42.3673 34.2975L40.9755 37.4C40.9006 37.5487 40.8547 37.7121 40.8405 37.8804C40.8262 38.0487 40.844 38.2183 40.8927 38.379C40.9413 38.5397 41.0199 38.6881 41.1236 38.8154C41.2273 38.9427 41.354 39.0461 41.4961 39.1194C41.6382 39.1927 41.7926 39.2344 41.9502 39.242C42.1077 39.2495 42.265 39.2228 42.4126 39.1634C42.5602 39.104 42.6951 39.0131 42.809 38.8963C42.9229 38.7795 43.0136 38.6391 43.0755 38.4838L44.6096 35.0638C48.1339 36.162 51.731 36.9714 55.3698 37.485C64.1256 38.9275 66.648 43.305 67.2138 46.7575V48.2275C64.0654 49.3209 60.825 50.0828 57.5386 50.5025C50.0196 51.8231 42.3237 51.3994 34.9706 49.26C30.6884 48.1645 26.4734 46.7869 22.3496 45.135C19.9206 34.1575 10.3306 31.125 5.06545 30.3C7.18013 21.6955 7.8088 12.7493 6.92045 3.9025ZM24.5605 13.125C24.6701 13.125 24.69 13.1162 25.7143 12.9912C25.4365 13.4259 25.0339 13.7514 24.5676 13.9185C24.1014 14.0855 23.5969 14.0849 23.131 13.9168C22.6651 13.7486 22.2632 13.4221 21.9863 12.9868C21.7094 12.5515 21.5727 12.0313 21.597 11.5052C21.6212 10.9791 21.8051 10.4758 22.1207 10.0719C22.4363 9.66804 22.8663 9.38556 23.3454 9.26742C23.8245 9.14929 24.3265 9.20197 24.7752 9.41744C25.2238 9.63292 25.5945 9.99942 25.831 10.4613L24.431 10.6337C24.1361 10.6713 23.8656 10.8279 23.6748 11.0717C23.4839 11.3155 23.387 11.6281 23.4038 11.9458C23.4206 12.2635 23.5499 12.5623 23.7652 12.7814C23.9806 13.0005 24.2658 13.1234 24.5628 13.125H24.5605ZM4.52995 32.7413C9.03562 33.4125 17.34 35.8662 19.8495 44.7262L3.05062 42.3537C3.30555 39.1127 3.80022 35.8984 4.52995 32.7413ZM3.05062 53.75V44.875L21.232 47.4375C21.9996 47.5625 21.022 47.4025 25.1228 48.8413C40.8763 54.375 48.9508 54.3638 57.884 52.9763C61.0439 52.5648 64.166 51.8694 67.2173 50.8975C67.2069 51.9506 66.8864 52.9734 66.3015 53.8198C65.7165 54.6663 64.8971 55.2932 63.96 55.6112C60.2379 56.7258 56.3998 57.3339 52.536 57.4213C48.168 57.69 43.786 57.3213 39.5101 56.3263C29.212 53.905 22.2061 51.1662 21.8246 51.1662C21.1363 51.1762 20.5763 51.7625 20.5506 52.5V53.75C20.5506 54.0815 20.4277 54.3995 20.2089 54.6339C19.9901 54.8683 19.6934 55 19.384 55H4.21729C3.90787 55 3.61112 54.8683 3.39233 54.6339C3.17354 54.3995 3.05062 54.0815 3.05062 53.75ZM17.0506 65V57.5H19.384C20.2516 57.5 21.0884 57.1547 21.7319 56.5311C22.3753 55.9075 22.7797 55.05 22.8665 54.125C25.684 55.0925 31.7331 56.9825 38.0506 58.535V65H17.0506ZM8.88395 57.5H14.7173V65H8.88395V57.5ZM66.2641 63.895C67.9173 69.8513 65.7695 72.5 60.2173 72.5H3.89179L2.33662 67.5H60.2173C61.4419 67.5851 62.6635 67.2904 63.7359 66.651C64.8083 66.0117 65.686 65.0549 66.2641 63.895ZM46.2173 59.9363V65H40.384V59.0763C40.7818 59.16 44.1581 59.7838 46.2173 59.9363Z" fill="black"/>
</svg>
