<svg width="66" height="70" viewBox="0 0 66 70" fill="none" xmlns="http://www.w3.org/2000/svg">
<path d="M31.0574 41.9464L25.9928 37.5315C24.6568 36.3669 23.7887 34.6975 23.5673 32.8674C23.4537 31.9288 23.5138 30.9755 23.7441 30.0617C23.9744 29.148 24.3705 28.2919 24.9096 27.5421L26.9854 24.6564L27.5773 23.7604L47.5941 21.7939L47.759 22.3159C48.2251 23.7916 48.2253 25.3906 47.7597 26.8665C47.294 28.3424 46.3884 29.6133 45.1823 30.4834C43.9596 31.3655 42.4974 31.7857 41.0268 31.6775L32.1675 31.0266L37.0147 36.9229L31.0574 41.9464Z" fill="#114E63"/>
<path d="M23.9761 12.5608L29.8823 13.1062C34.4011 13.6001 38.8134 14.8865 42.9427 16.9139C44.9752 17.9117 46.6197 19.6371 47.5934 21.7934L22.6466 25.2583L21.2017 25.4946L21.8032 18.2854L23.9761 12.5608Z" fill="#0A9ACD"/>
<path d="M13.2661 20.6527L14.4914 21.6643L17.7454 21.2123L24.3045 13.7114L21.803 13.4938L18.6493 10.4517" fill="#114E63"/>
<path d="M37.0149 36.9225L31.0574 41.9469L34.4356 44.8912L31.6205 46.9218C31.2111 47.2172 30.8649 47.6025 30.605 48.0521C30.3451 48.5018 30.1775 49.0055 30.1132 49.5299C30.0489 50.0543 30.0894 50.5873 30.232 51.0936C30.3746 51.6 30.6161 52.068 30.9405 52.4667L41.6763 49.941L43.1879 45.0537L43.0956 44.8961C41.3863 41.9774 39.3436 39.2988 37.0149 36.9225Z" fill="#DE8F1C"/>
<path d="M10.8157 18.6298L13.5073 13.5292L16.9018 14.2395L17.1831 16.5637L13.2662 20.6527L10.8157 18.6298Z" fill="#0A9ACD"/>
<path d="M16.9019 14.2395L18.6494 10.4517L16.1989 8.42871L13.3823 13.8851L16.9019 14.2395Z" fill="#C38325"/>
<path d="M2.73933 35.1035C2.45748 35.1039 2.18637 34.9877 1.98255 34.7791C1.77874 34.5705 1.65795 34.2856 1.64538 33.9839C1.6328 33.6823 1.72942 33.387 1.91507 33.1598C2.10073 32.9326 2.36109 32.7909 2.64185 32.7643L59.3257 29.4523C59.6147 29.4242 59.9023 29.5202 60.1252 29.7192C60.3481 29.9182 60.4881 30.204 60.5144 30.5136C60.5406 30.8232 60.451 31.1313 60.2653 31.3702C60.0795 31.609 59.8128 31.759 59.5238 31.7871L2.84023 35.0992C2.80614 35.1021 2.77251 35.1035 2.73933 35.1035Z" fill="#CBCBCB"/>
<path d="M57.5356 34.417C57.2701 34.4166 57.0138 34.3128 56.8144 34.1248C56.6151 33.9369 56.4864 33.6777 56.4523 33.3955L55.8899 28.7469C55.8543 28.4395 55.9337 28.1295 56.1107 27.8846C56.2877 27.6398 56.548 27.48 56.8347 27.4401C57.1214 27.4003 57.4112 27.4837 57.6406 27.6721C57.8701 27.8605 58.0206 28.1386 58.0593 28.4455L58.6217 33.0944C58.6402 33.247 58.6304 33.402 58.593 33.5506C58.5555 33.6992 58.4911 33.8384 58.4034 33.9603C58.3157 34.0822 58.2065 34.1844 58.082 34.2611C57.9574 34.3377 57.82 34.3874 57.6775 34.4072C57.6305 34.4137 57.5831 34.417 57.5356 34.417Z" fill="#A8A8A8"/>
<path d="M3.48853 59.0259L63.2684 44.7853C63.5202 45.9986 63.3118 47.2695 62.689 48.3182C62.0663 49.3669 61.0802 50.1077 59.9478 50.3775L8.70776 62.5837C7.57531 62.8534 6.38924 62.6301 5.41045 61.9629C4.43166 61.2957 3.74033 60.2392 3.48853 59.0259Z" fill="#0A9ACD"/>
<path d="M2.32785 65.284C2.05831 65.2841 1.79823 65.1776 1.59749 64.9849C1.39675 64.7922 1.2695 64.5268 1.24015 64.2398C1.2108 63.9527 1.28142 63.6641 1.43845 63.4294C1.59549 63.1947 1.82789 63.0304 2.09105 62.968L64.011 48.1877C64.1516 48.153 64.2972 48.1485 64.4395 48.1744C64.5817 48.2003 64.7178 48.2561 64.8398 48.3385C64.9618 48.421 65.0674 48.5285 65.1505 48.6549C65.2336 48.7813 65.2925 48.9241 65.3239 49.075C65.3552 49.2259 65.3584 49.3819 65.3333 49.5341C65.3081 49.6864 65.2551 49.8317 65.1772 49.9619C65.0994 50.0921 64.9983 50.2044 64.8797 50.2926C64.7612 50.3807 64.6275 50.4428 64.4865 50.4753L2.56656 65.2556C2.4882 65.2744 2.40815 65.2839 2.32785 65.284Z" fill="#EAEAE8"/>
<path d="M8.61681 68.5852C8.34757 68.5849 8.08789 68.4782 7.88749 68.2856C7.68709 68.0929 7.56005 67.8278 7.53069 67.5411C7.50134 67.2543 7.57173 66.9661 7.72838 66.7315C7.88504 66.4968 8.11696 66.3324 8.37974 66.2696L13.7176 64.9952C14.0002 64.9292 14.2956 64.9859 14.5393 65.1527C14.783 65.3195 14.9551 65.583 15.0179 65.8854C15.0808 66.1878 15.0294 66.5046 14.8748 66.7665C14.7203 67.0283 14.4752 67.214 14.1933 67.2828L8.85538 68.5572C8.77706 68.5759 8.69705 68.5853 8.61681 68.5852Z" fill="#CBCBCB"/>
<path d="M20.3598 65.7819C20.0904 65.7819 19.8305 65.6752 19.6299 65.4825C19.4293 65.2898 19.3022 65.0245 19.2729 64.7376C19.2435 64.4507 19.3141 64.1622 19.471 63.9276C19.6279 63.6929 19.8601 63.5285 20.1232 63.466L36.1369 59.6428C36.2775 59.6081 36.4231 59.6036 36.5654 59.6295C36.7076 59.6554 36.8437 59.7111 36.9657 59.7936C37.0877 59.8761 37.1933 59.9836 37.2764 60.11C37.3595 60.2364 37.4184 60.3792 37.4498 60.53C37.4812 60.6809 37.4843 60.837 37.4592 60.9892C37.434 61.1414 37.381 61.2868 37.3031 61.417C37.2253 61.5471 37.1242 61.6595 37.0056 61.7476C36.8871 61.8358 36.7534 61.8979 36.6124 61.9304L20.5987 65.7537C20.5203 65.7725 20.4402 65.7819 20.3598 65.7819Z" fill="#EAEAE8"/>
<path d="M41.7114 60.6853C41.442 60.6852 41.182 60.5786 40.9815 60.3859C40.7809 60.1932 40.6537 59.9279 40.6244 59.641C40.5951 59.354 40.6657 59.0656 40.8226 58.8309C40.9795 58.5963 41.2117 58.4319 41.4747 58.3694L46.8125 57.095C47.0948 57.0299 47.3896 57.087 47.6327 57.2539C47.8758 57.4208 48.0475 57.6839 48.1103 57.9859C48.173 58.2878 48.1218 58.6041 47.9678 58.8658C47.8137 59.1275 47.5694 59.3132 47.288 59.3826L41.9502 60.657C41.8718 60.6758 41.7917 60.6853 41.7114 60.6853Z" fill="#CBCBCB"/>
<path d="M51.3195 58.3918C51.05 58.3917 50.7901 58.2851 50.5895 58.0923C50.389 57.8996 50.2618 57.6344 50.2325 57.3474C50.2032 57.0605 50.2737 56.772 50.4306 56.5374C50.5876 56.3027 50.8198 56.1384 51.0828 56.0758L60.691 53.7822C60.8312 53.7487 60.9762 53.7452 61.1176 53.7717C61.2591 53.7983 61.3943 53.8545 61.5156 53.937C61.6368 54.0196 61.7416 54.1269 61.8242 54.2529C61.9067 54.3789 61.9652 54.5211 61.9964 54.6713C62.0277 54.8215 62.031 54.9768 62.0062 55.1284C61.9814 55.28 61.929 55.4249 61.8519 55.5548C61.7748 55.6846 61.6747 55.797 61.5571 55.8854C61.4395 55.9738 61.3068 56.0365 61.1666 56.07L51.5584 58.3635C51.48 58.3823 51.3998 58.3918 51.3195 58.3918ZM35.1898 67.0444C34.9204 67.0444 34.6604 66.9378 34.4598 66.7451C34.2592 66.5524 34.132 66.2871 34.1027 66.0002C34.0734 65.7132 34.1439 65.4248 34.3008 65.1901C34.4577 64.9554 34.69 64.7911 34.953 64.7285L48.8314 61.4156C49.114 61.3497 49.4094 61.4064 49.6531 61.5732C49.8968 61.74 50.0689 62.0034 50.1317 62.3059C50.1946 62.6083 50.1432 62.9251 49.9886 63.1869C49.8341 63.4488 49.589 63.6345 49.3071 63.7033L35.4286 67.0166C35.3502 67.0353 35.2701 67.0446 35.1898 67.0444Z" fill="#EAEAE8"/>
<path d="M24.6285 69.5655C24.3591 69.5654 24.0991 69.4588 23.8985 69.2661C23.6979 69.0734 23.5708 68.8082 23.5414 68.5212C23.5121 68.2343 23.5826 67.9458 23.7395 67.7111C23.8964 67.4765 24.1287 67.3121 24.3917 67.2496L29.0128 66.1465C29.2954 66.0806 29.5908 66.1373 29.8344 66.3041C30.0781 66.4709 30.2502 66.7343 30.3131 67.0368C30.376 67.3392 30.3245 67.656 30.17 67.9178C30.0154 68.1797 29.7704 68.3654 29.4884 68.4342L24.8674 69.5372C24.7889 69.556 24.7088 69.5655 24.6285 69.5655Z" fill="#CBCBCB"/>
<path d="M45.3788 40.6002C45.1094 40.6002 44.8495 40.4935 44.6489 40.3008C44.4483 40.1081 44.3212 39.8429 44.2919 39.5559C44.2625 39.269 44.3331 38.9805 44.49 38.7459C44.6469 38.5112 44.8791 38.3469 45.1421 38.2843L52.6152 36.5004C52.8977 36.4345 53.1932 36.4912 53.4368 36.658C53.6805 36.8248 53.8526 37.0882 53.9155 37.3907C53.9784 37.6931 53.9269 38.0099 53.7724 38.2717C53.6178 38.5336 53.3728 38.7193 53.0908 38.7881L45.6177 40.572C45.5393 40.5908 45.4592 40.6002 45.3788 40.6002ZM47.3979 44.9206C47.1284 44.9206 46.8685 44.814 46.6679 44.6213C46.4673 44.4286 46.3401 44.1633 46.3108 43.8764C46.2814 43.5894 46.352 43.301 46.5089 43.0663C46.6658 42.8316 46.898 42.6673 47.1611 42.6047L50.3638 41.8402C50.6464 41.7743 50.9418 41.831 51.1855 41.9978C51.4292 42.1646 51.6013 42.428 51.6641 42.7305C51.727 43.0329 51.6756 43.3497 51.521 43.6115C51.3665 43.8734 51.1214 44.0591 50.8395 44.1279L47.6364 44.8924C47.5581 44.9112 47.4781 44.9206 47.3979 44.9206ZM27.9216 5.14736C27.6521 5.14748 27.392 5.04096 27.1912 4.84824C26.9905 4.65551 26.8632 4.39016 26.8339 4.10309C26.8045 3.81602 26.8752 3.52744 27.0322 3.29273C27.1892 3.05802 27.4216 2.89369 27.6848 2.83129L39.4281 0.0280207C39.5683 -0.00543177 39.7133 -0.00896895 39.8548 0.0176112C39.9963 0.0441913 40.1315 0.100368 40.2527 0.182934C40.3739 0.265501 40.4788 0.372839 40.5613 0.498821C40.6438 0.624803 40.7023 0.766962 40.7335 0.917181C40.7647 1.0674 40.768 1.22274 40.7432 1.37432C40.7184 1.52591 40.666 1.67077 40.5889 1.80065C40.5119 1.93052 40.4117 2.04286 40.2941 2.13126C40.1765 2.21965 40.0438 2.28236 39.9036 2.31581L28.1607 5.11894C28.0822 5.13781 28.002 5.14734 27.9216 5.14736ZM32.0759 8.958C31.8065 8.95796 31.5466 8.85137 31.346 8.65866C31.1454 8.46596 31.0182 8.2007 30.9889 7.91374C30.9595 7.62678 31.0301 7.33832 31.187 7.10365C31.3439 6.86898 31.5761 6.70462 31.8391 6.64208L35.0419 5.87758C35.1825 5.84291 35.3281 5.83839 35.4704 5.86428C35.6126 5.89016 35.7487 5.94595 35.8707 6.02843C35.9928 6.1109 36.0984 6.21843 36.1815 6.34482C36.2645 6.47121 36.3235 6.61396 36.3548 6.76486C36.3862 6.91575 36.3894 7.0718 36.3642 7.22403C36.339 7.37625 36.286 7.52163 36.2082 7.65179C36.1303 7.78196 36.0292 7.89434 35.9107 7.98246C35.7921 8.07058 35.6585 8.13269 35.5174 8.16523L32.3148 8.92973C32.2364 8.94853 32.1563 8.95801 32.0759 8.958ZM39.549 7.17426C39.2794 7.17438 39.0194 7.06786 38.8186 6.87514C38.6179 6.68242 38.4906 6.41707 38.4613 6.12999C38.4319 5.84292 38.5025 5.55435 38.6596 5.31963C38.8166 5.08492 39.049 4.9206 39.3122 4.8582L45.7177 3.32934C45.8583 3.29467 46.004 3.29014 46.1462 3.31603C46.2885 3.34192 46.4245 3.39771 46.5466 3.48018C46.6686 3.56266 46.7742 3.67019 46.8573 3.79658C46.9404 3.92297 46.9993 4.06572 47.0306 4.21662C47.062 4.36751 47.0652 4.52356 47.04 4.67578C47.0149 4.828 46.9618 4.97338 46.884 5.10355C46.8061 5.23372 46.705 5.3461 46.5865 5.43421C46.4679 5.52233 46.3343 5.58445 46.1932 5.61699L39.7878 7.14584C39.7094 7.16469 39.6293 7.17422 39.549 7.17426Z" fill="#B0D2FD"/>
<path d="M10.8625 19.0173L9.42231 18.1091C8.75551 17.6882 8.18719 17.1098 7.76071 16.4179C7.33423 15.726 7.06083 14.9389 6.96137 14.1166C6.81272 12.888 7.05952 11.6418 7.66105 10.5838C8.26257 9.52571 9.18285 8.71905 10.27 8.29695L15.9175 6.10437L16.1988 8.42878L10.8625 19.0173Z" fill="#0A9ACD"/>
<path d="M7.46115 27.3674L5.29184 27.6687L4.06656 26.6572L1.09375 29.4334L3.15697 35.0676L8.1643 33.1781L7.46115 27.3674Z" fill="#DE8F1C"/>
<path d="M22.3257 13.6586L15.8575 23.8379L7.46118 27.3682L8.16433 33.1788L19.6739 28.0353L27.4471 20.4361C28.0923 19.8054 28.586 19.0173 28.8864 18.1387C29.1868 17.26 29.2851 16.3167 29.1728 15.3887C29.0455 14.3364 28.5332 13.3814 27.7487 12.7337C27.3603 12.413 26.9167 12.1774 26.4432 12.0405C25.9698 11.9035 25.4758 11.8678 24.9895 11.9353L24.9325 11.9432C24.4096 12.0158 23.9069 12.2061 23.4576 12.5018C23.0083 12.7974 22.6225 13.1917 22.3257 13.6586Z" fill="#0A9ACD"/>
<path d="M22.4917 25.2799L27.4471 20.4355L25.5687 24.8526L22.4917 25.2799Z" fill="#961B20"/>
<path d="M65.3153 49.0767C65.2522 48.7733 65.0793 48.5093 64.8346 48.3425C64.5898 48.1758 64.2933 48.12 64.0102 48.1875C64.4999 47.0332 64.6241 45.7389 64.3639 44.502C64.3008 44.1986 64.1278 43.9346 63.883 43.7679C63.6382 43.6012 63.3416 43.5455 63.0585 43.6131L43.3297 48.3217L44.2264 45.4225C44.2771 45.2586 44.2934 45.0847 44.274 44.9133C44.2547 44.7419 44.2003 44.5772 44.1146 44.4309L41.4486 39.878C41.4461 39.8738 34.8509 33.2288 34.8509 33.2288L56.2811 31.9767L56.4526 33.3955C56.4867 33.6777 56.6154 33.9369 56.8148 34.1248C57.0141 34.3128 57.2705 34.4166 57.536 34.4169C57.5834 34.4169 57.6308 34.4137 57.6779 34.4071C57.8204 34.3874 57.9578 34.3377 58.0823 34.261C58.2069 34.1844 58.3161 34.0822 58.4038 33.9603C58.4915 33.8384 58.5559 33.6991 58.5933 33.5506C58.6308 33.402 58.6406 33.247 58.6221 33.0943L58.4717 31.8492L59.4853 31.7906C59.6288 31.7823 59.7692 31.7437 59.8988 31.6771C60.0283 31.6106 60.1443 31.5174 60.2402 31.4028C60.3361 31.2882 60.41 31.1545 60.4576 31.0093C60.5053 30.8641 60.5258 30.7103 60.518 30.5566C60.5102 30.403 60.4742 30.2525 60.412 30.1137C60.3499 29.9749 60.2629 29.8506 60.156 29.7479C60.049 29.6451 59.9242 29.566 59.7887 29.5149C59.6532 29.4638 59.5097 29.4419 59.3662 29.4502L58.1896 29.5189L58.0599 28.4467C58.0212 28.1397 57.8707 27.8617 57.6413 27.6733C57.4118 27.4849 57.1221 27.4015 56.8354 27.4413C56.5487 27.4811 56.2884 27.6409 56.1113 27.8858C55.9343 28.1306 55.8549 28.4406 55.8906 28.748L56 29.647L47.189 30.1611C48.1153 29.0679 48.7524 27.7296 49.0348 26.2844C49.3171 24.8392 49.2343 23.3395 48.795 21.94C48.795 21.94 48.5988 21.3313 48.5842 21.298C48.5822 21.2933 48.5808 21.2883 48.5787 21.2833C47.4925 18.8831 45.6614 16.962 43.399 15.8487C39.1613 13.7663 34.6324 12.4459 29.9941 11.9405L28.3967 11.7658C28.3858 11.7646 28.3748 11.7649 28.3639 11.764C27.3593 10.9522 26.0971 10.5961 24.8496 10.7725L24.7917 10.7805C24.661 10.7987 24.532 10.8245 24.4041 10.8538C24.3402 10.8502 24.2762 10.8526 24.2127 10.8611L22.3718 11.1167L19.2311 9.45235L17.2253 7.79707L17.0023 5.95415C16.9813 5.78009 16.924 5.61331 16.8348 5.46613C16.7455 5.31895 16.6265 5.19514 16.4866 5.10382C16.3467 5.01251 16.1895 4.95603 16.0265 4.93856C15.8635 4.92109 15.6989 4.94307 15.5449 5.00288L9.89731 7.19487C8.7954 7.62254 7.82981 8.3773 7.11331 9.37099C6.39682 10.3647 5.95901 11.5563 5.85101 12.8066C5.74302 14.057 5.9693 15.3144 6.50342 16.4321C7.03754 17.5498 7.85746 18.4816 8.8674 19.1187L10.3075 20.0269C10.4756 20.133 10.6672 20.1889 10.8624 20.1889C10.8777 20.1889 10.893 20.1863 10.9083 20.1857L12.5987 21.581L13.824 22.5924C14.0153 22.7504 14.25 22.8361 14.4915 22.8362C14.5385 22.8362 14.5855 22.8329 14.6321 22.8264L15.2296 22.7435L15.1433 22.8791L7.18699 26.2238L5.60106 26.4435L4.73399 25.729C4.5337 25.5636 4.28614 25.4777 4.03341 25.4859C3.78068 25.4941 3.53841 25.5958 3.34779 25.7738L0.374982 28.5498C0.204962 28.7086 0.084931 28.9199 0.0313301 29.1546C-0.0222708 29.3894 -0.00681934 29.6362 0.0755677 29.8611L1.72262 34.3592C1.79577 34.5582 1.91846 34.7319 2.07735 34.8614C2.23623 34.9909 2.42521 35.0712 2.62373 35.0936C2.66213 35.1 2.70094 35.1032 2.73981 35.1031H2.74049C2.76031 35.1031 2.78027 35.1031 2.80037 35.1013L22.6454 33.9418C23.0485 35.7121 23.9819 37.2921 25.3026 38.4401L30.3671 42.855L32.6005 44.802L31.0098 45.9495C30.1641 46.5593 29.5327 47.4543 29.2159 48.4925C28.8991 49.5306 28.9151 50.6524 29.2613 51.6797L3.27424 57.883C2.9911 57.9506 2.74462 58.1359 2.58902 58.3982C2.43341 58.6605 2.38142 58.9783 2.44449 59.2816C2.69878 60.5203 3.32415 61.6359 4.22525 62.4583L2.09039 62.9679C1.95019 63.0014 1.81751 63.0641 1.69993 63.1525C1.58235 63.2409 1.48217 63.3533 1.40512 63.4831C1.32806 63.613 1.27564 63.7579 1.25084 63.9095C1.22604 64.0611 1.22935 64.2164 1.26058 64.3666C1.29181 64.5168 1.35035 64.659 1.43286 64.785C1.51536 64.911 1.62022 65.0183 1.74145 65.1009C1.98627 65.2676 2.28288 65.3233 2.56604 65.2557L8.96899 63.7271H8.97281L64.4854 50.4762C64.6257 50.4427 64.7585 50.38 64.8761 50.2915C64.9938 50.2031 65.094 50.0907 65.1711 49.9607C65.2481 49.8307 65.3005 49.6857 65.3253 49.5341C65.35 49.3824 65.3466 49.2269 65.3153 49.0767ZM36.9462 38.4712L38.7809 40.3434L34.4977 43.4341L32.8078 41.9615L36.9462 38.4712ZM24.6207 31.4795C24.7024 30.3071 25.1042 29.1864 25.776 28.2568L27.575 25.7549L46.8323 23.0804C47.0295 23.8797 47.0683 24.7145 46.9463 25.5309C46.8243 26.3473 46.5441 27.1273 46.1237 27.8207C45.7033 28.5141 45.1522 29.1055 44.5056 29.5569C43.8591 30.0083 43.1315 30.3097 42.3696 30.4417L24.6207 31.4795ZM22.9742 26.3947L24.5073 26.1817L24.0433 26.8272C23.0508 28.2004 22.4846 29.8722 22.4242 31.6078L13.331 32.1391L20.095 29.1164C20.2112 29.0644 20.3181 28.9913 20.4111 28.9003L22.9742 26.3947ZM45.7961 20.8614L25.7921 23.6398L28.1847 21.3012C28.9594 20.5432 29.5523 19.5964 29.9131 18.5409C30.274 17.4854 30.3922 16.3523 30.2577 15.2375C30.2192 14.9215 30.1539 14.61 30.0626 14.3068C34.3615 14.8082 38.557 16.0482 42.4879 17.9791C43.8003 18.6248 44.9385 19.6165 45.7961 20.8614ZM13.1824 19.1036L12.3909 18.4503L14.1968 14.8682L15.9185 15.2282L16.0279 16.1339L13.1824 19.1036ZM16.5502 10.1974L17.2715 10.793L16.2915 12.917L15.2855 12.7065L16.5502 10.1974ZM8.04559 13.9657C7.92445 13.0008 8.1163 12.0207 8.58902 11.1893C9.06174 10.3579 9.78665 9.72565 10.6424 9.39844L15.0083 7.70376L15.0688 8.20459L10.27 17.2833L9.97756 17.0988C9.45286 16.7703 9.00573 16.3168 8.67072 15.7735C8.33572 15.2302 8.12183 14.6117 8.04559 13.9657ZM15.0739 20.4018L17.9463 17.4031C18.0679 17.2761 18.1603 17.1206 18.216 16.9487C18.2718 16.7769 18.2895 16.5935 18.2676 16.4131L18.0291 14.4407L19.1452 12.0215L21.313 13.1697L16.8767 20.1513L15.0739 20.4018ZM16.2568 24.9289C16.4617 24.8427 16.6377 24.6923 16.7615 24.4973L23.2297 14.318C23.4396 13.9879 23.7122 13.7092 24.0298 13.5001C24.3473 13.291 24.7025 13.1562 25.0721 13.1046L25.13 13.0966C25.8245 13.0002 26.5263 13.2033 27.081 13.6613C27.6358 14.1192 27.9981 14.7945 28.0881 15.5386C28.1776 16.2798 28.099 17.0332 27.8591 17.735C27.6192 18.4368 27.225 19.0664 26.7099 19.5703L19.0771 27.0315L9.06482 31.506L8.65563 28.1241L16.2568 24.9289ZM4.10932 28.1717L4.6242 28.5965C4.73788 28.6907 4.86781 28.7599 5.00652 28.8001C5.14523 28.8403 5.28999 28.8508 5.43248 28.8309L6.51707 28.6803L6.93899 32.1667L3.44705 32.6514L2.39336 29.7743L4.10932 28.1717ZM24.8821 33.8114L31.7837 33.408L35.3232 36.8578L32.3461 39.3683L31.0686 40.4454L26.6831 36.6221C25.842 35.8912 25.2165 34.915 24.8821 33.8114ZM31.4261 51.1523C31.1689 50.5969 31.1087 49.9602 31.2569 49.3607C31.405 48.7612 31.7513 48.2398 32.2314 47.8935L40.1955 42.1485L41.9878 45.2089L40.8413 48.9149L31.4261 51.1523ZM5.00045 59.8723L62.2856 46.1981C62.203 46.9198 61.9139 47.5964 61.4582 48.1351C61.0024 48.6738 60.4022 49.0482 59.7399 49.2069H59.7383L8.49375 61.4394C7.83172 61.596 7.14067 61.5296 6.51529 61.249C5.88991 60.9685 5.36079 60.4876 5.00045 59.8723ZM13.7176 64.9951L8.37973 66.2695C8.23952 66.303 8.10684 66.3657 7.98926 66.4541C7.87168 66.5425 7.77151 66.6549 7.69445 66.7847C7.6174 66.9146 7.56497 67.0595 7.54017 67.2111C7.51537 67.3627 7.51868 67.518 7.54991 67.6682C7.58114 67.8185 7.63969 67.9606 7.72219 68.0866C7.8047 68.2126 7.90956 68.3199 8.03078 68.4025C8.2756 68.5692 8.57222 68.6249 8.85537 68.5573L14.1933 67.2829C14.4752 67.2141 14.7203 67.0284 14.8748 66.7666C15.0293 66.5047 15.0808 66.1879 15.0179 65.8855C14.9551 65.5831 14.783 65.3196 14.5393 65.1528C14.2956 64.986 14.0002 64.9292 13.7176 64.9951ZM37.4422 60.5325C37.3791 60.2291 37.2061 59.965 36.9613 59.7983C36.7165 59.6316 36.4199 59.5759 36.1368 59.6435L20.123 63.4667C19.982 63.4992 19.8483 63.5613 19.7298 63.6495C19.6112 63.7376 19.5101 63.85 19.4323 63.9801C19.3545 64.1103 19.3014 64.2557 19.2763 64.4079C19.2511 64.5601 19.2543 64.7162 19.2856 64.8671C19.317 65.018 19.3759 65.1607 19.459 65.2871C19.5421 65.4135 19.6477 65.521 19.7697 65.6035C19.8918 65.686 20.0278 65.7418 20.1701 65.7676C20.3123 65.7935 20.4579 65.789 20.5986 65.7543L36.6123 61.9318C36.7526 61.8984 36.8853 61.8357 37.003 61.7472C37.1206 61.6588 37.2208 61.5464 37.2979 61.4164C37.3749 61.2865 37.4274 61.1415 37.4521 60.9898C37.4769 60.8382 37.4735 60.6827 37.4422 60.5325ZM41.7113 60.6853C41.7917 60.6853 41.8718 60.6758 41.9502 60.657L47.288 59.3826C47.5694 59.3132 47.8137 59.1274 47.9678 58.8657C48.1218 58.6041 48.173 58.2878 48.1103 57.9858C48.0475 57.6838 47.8758 57.4207 47.6327 57.2538C47.3896 57.0869 47.0947 57.0298 46.8125 57.0949L41.4747 58.3693C41.2117 58.4319 40.9794 58.5962 40.8225 58.8309C40.6656 59.0655 40.5951 59.354 40.6244 59.6409C40.6537 59.9279 40.7809 60.1931 40.9814 60.3858C41.182 60.5786 41.4419 60.6852 41.7113 60.6853ZM60.6909 53.7822L51.0827 56.0758C50.942 56.1087 50.8086 56.171 50.6904 56.2592C50.5722 56.3474 50.4714 56.4598 50.3938 56.5899C50.3162 56.7199 50.2634 56.8652 50.2383 57.0172C50.2133 57.1692 50.2165 57.325 50.2479 57.4757C50.2792 57.6264 50.338 57.7689 50.4209 57.8952C50.5038 58.0214 50.6092 58.1289 50.7309 58.2114C50.8527 58.2939 50.9885 58.3498 51.1305 58.3759C51.2725 58.402 51.4179 58.3978 51.5584 58.3635L61.1666 56.07C61.3068 56.0365 61.4394 55.9738 61.557 55.8854C61.6746 55.797 61.7748 55.6846 61.8518 55.5548C61.9289 55.4249 61.9813 55.28 62.0061 55.1284C62.0309 54.9768 62.0276 54.8215 61.9964 54.6713C61.9651 54.521 61.9066 54.3789 61.8241 54.2529C61.7416 54.1269 61.6367 54.0196 61.5155 53.937C61.3943 53.8545 61.2591 53.7983 61.1176 53.7717C60.9761 53.7452 60.8311 53.7487 60.6909 53.7822ZM48.8314 61.4156L34.9529 64.7285C34.8122 64.7614 34.6788 64.8237 34.5606 64.9119C34.4424 65.0001 34.3416 65.1125 34.264 65.2426C34.1864 65.3726 34.1336 65.5178 34.1085 65.6699C34.0835 65.8219 34.0867 65.9777 34.1181 66.1284C34.1494 66.279 34.2082 66.4216 34.2911 66.5479C34.374 66.6741 34.4794 66.7816 34.6011 66.8641C34.7229 66.9466 34.8587 67.0025 35.0007 67.0286C35.1427 67.0547 35.2881 67.0505 35.4286 67.0162L49.307 63.7033C49.589 63.6345 49.834 63.4488 49.9886 63.1869C50.1431 62.9251 50.1946 62.6083 50.1317 62.3059C50.0688 62.0034 49.8967 61.74 49.653 61.5732C49.4094 61.4064 49.1139 61.3497 48.8314 61.4156ZM29.0128 66.1465L24.3917 67.2495C24.2509 67.2824 24.1176 67.3447 23.9993 67.4329C23.8811 67.5211 23.7803 67.6335 23.7027 67.7636C23.6252 67.8936 23.5723 68.0388 23.5473 68.1909C23.5222 68.3429 23.5255 68.4987 23.5568 68.6494C23.5881 68.8 23.6469 68.9426 23.7298 69.0688C23.8127 69.1951 23.9181 69.3026 24.0399 69.3851C24.1617 69.4675 24.2974 69.5235 24.4394 69.5496C24.5814 69.5757 24.7268 69.5714 24.8673 69.5372L29.4884 68.4341C29.7704 68.3653 30.0154 68.1797 30.1699 67.9178C30.3245 67.6559 30.3759 67.3391 30.3131 67.0367C30.2502 66.7343 30.0781 66.4709 29.8344 66.304C29.5907 66.1372 29.2953 66.0806 29.0128 66.1465Z" fill="black"/>
<path d="M53.9206 37.3894C53.8575 37.0861 53.6845 36.822 53.4397 36.6553C53.1949 36.4886 52.8983 36.4329 52.6152 36.5004L45.1421 38.2843C45.0011 38.3169 44.8674 38.379 44.7489 38.4671C44.6303 38.5552 44.5292 38.6676 44.4514 38.7978C44.3735 38.9279 44.3205 39.0733 44.2953 39.2255C44.2702 39.3777 44.2734 39.5338 44.3047 39.6847C44.3361 39.8356 44.395 39.9783 44.4781 40.1047C44.5612 40.2311 44.6668 40.3386 44.7888 40.4211C44.9108 40.5036 45.0469 40.5594 45.1891 40.5853C45.3314 40.6112 45.477 40.6066 45.6176 40.572L53.0915 38.7881C53.3745 38.7203 53.6208 38.5349 53.7763 38.2727C53.9318 38.0104 53.9836 37.6927 53.9206 37.3894ZM50.3638 41.8402L47.161 42.6047C47.0203 42.6376 46.8869 42.6999 46.7687 42.7881C46.6505 42.8763 46.5497 42.9887 46.4721 43.1188C46.3945 43.2488 46.3417 43.3941 46.3167 43.5461C46.2916 43.6981 46.2948 43.8539 46.3262 44.0046C46.3575 44.1553 46.4163 44.2978 46.4992 44.4241C46.5821 44.5503 46.6875 44.6578 46.8092 44.7403C46.931 44.8228 47.0668 44.8787 47.2088 44.9048C47.3508 44.9309 47.4962 44.9267 47.6367 44.8924L50.8395 44.1279C51.1214 44.0591 51.3665 43.8734 51.521 43.6115C51.6755 43.3497 51.727 43.0329 51.6641 42.7305C51.6012 42.428 51.4291 42.1646 51.1855 41.9978C50.9418 41.831 50.6464 41.7743 50.3638 41.8402ZM27.9216 5.14736C28.0019 5.14732 28.082 5.13779 28.1604 5.11894L39.9036 2.31581C40.0438 2.28236 40.1765 2.21965 40.2941 2.13126C40.4117 2.04286 40.5118 1.93052 40.5889 1.80065C40.666 1.67077 40.7184 1.52591 40.7432 1.37432C40.768 1.22274 40.7647 1.0674 40.7335 0.917181C40.7023 0.766962 40.6437 0.624803 40.5612 0.498821C40.4787 0.372839 40.3739 0.265501 40.2527 0.182934C40.1314 0.100368 39.9962 0.0441913 39.8548 0.0176112C39.7133 -0.00896895 39.5683 -0.00543177 39.4281 0.0280207L27.685 2.83129C27.4219 2.89369 27.1895 3.05799 27.0325 3.29267C26.8754 3.52735 26.8048 3.81589 26.8341 4.10294C26.8634 4.39 26.9906 4.65534 27.1913 4.84809C27.392 5.04083 27.6521 5.1474 27.9216 5.14736ZM35.0419 5.87758L31.8391 6.64208C31.6983 6.67493 31.565 6.73725 31.4468 6.82546C31.3285 6.91368 31.2277 7.02605 31.1502 7.15613C31.0726 7.2862 31.0198 7.43142 30.9947 7.58343C30.9697 7.73545 30.9729 7.89127 31.0042 8.04194C31.0356 8.19261 31.0944 8.33517 31.1773 8.46142C31.2602 8.58767 31.3655 8.69513 31.4873 8.77762C31.6091 8.86012 31.7449 8.91602 31.8869 8.94212C32.0289 8.96823 32.1743 8.96402 32.3148 8.92973L35.5174 8.16523C35.6584 8.13269 35.7921 8.07058 35.9106 7.98246C36.0292 7.89434 36.1303 7.78196 36.2081 7.65179C36.286 7.52163 36.339 7.37625 36.3642 7.22403C36.3893 7.0718 36.3862 6.91575 36.3548 6.76486C36.3234 6.61396 36.2645 6.47121 36.1814 6.34482C36.0983 6.21843 35.9927 6.1109 35.8707 6.02843C35.7487 5.94595 35.6126 5.89016 35.4704 5.86428C35.3281 5.83839 35.1825 5.84291 35.0419 5.87758ZM38.4824 6.25683C38.5134 6.40716 38.5718 6.54945 38.6543 6.67555C38.7367 6.80165 38.8416 6.90907 38.9629 6.99167C39.0841 7.07426 39.2194 7.13039 39.361 7.15684C39.5026 7.1833 39.6476 7.17956 39.7878 7.14584L46.1932 5.61699C46.3343 5.58445 46.4679 5.52233 46.5865 5.43421C46.705 5.3461 46.8061 5.23372 46.884 5.10355C46.9618 4.97338 47.0148 4.828 47.04 4.67578C47.0652 4.52356 47.062 4.36751 47.0306 4.21662C46.9992 4.06572 46.9403 3.92297 46.8572 3.79658C46.7742 3.67019 46.6686 3.56266 46.5465 3.48018C46.4245 3.39771 46.2884 3.34192 46.1462 3.31603C46.0039 3.29014 45.8583 3.29467 45.7177 3.32934L39.3122 4.8582C39.029 4.92578 38.7825 5.1111 38.6269 5.3734C38.4713 5.63569 38.4193 5.95347 38.4824 6.25683Z" fill="black"/>
</svg>
