<svg width="73" height="73" viewBox="0 0 73 73" fill="none" xmlns="http://www.w3.org/2000/svg">
<path d="M46.3248 50.7642C45.9433 50.9136 45.5397 50.9901 45.1329 50.9902C43.7315 50.9902 42.4142 50.0791 41.9016 48.6052L40.8364 45.5496L42.8772 42.5764L47.3004 43.0276L48.3656 46.0832C49.0241 47.9724 48.1106 50.0673 46.3248 50.7642Z" fill="#3157AB"/>
<path d="M47.2997 43.0275L43.429 44.5377L40.8358 45.5494L37.526 36.0547L34.9519 28.6722L32.2181 20.8289L30.7505 16.6217L37.2159 14.0996L38.2948 17.1931L42.8904 30.3793L47.2997 43.0275Z" fill="#DD636E"/>
<path d="M43.4293 44.5376L40.8361 45.5493L37.5263 36.0546L34.9521 28.6721L39.6193 31.77L43.4293 44.5376Z" fill="#DA4A54"/>
<path d="M42.8904 30.3793L37.526 36.0547L32.2181 20.829L33.618 19.3479C34.9147 17.9761 36.5958 17.2573 38.2948 17.1932L42.8904 30.3793ZM27.07 53.1609C27.07 55.1742 25.528 56.8054 23.6251 56.8054H10.7027C8.80109 56.8054 7.25781 55.174 7.25781 53.1609C7.2573 52.6824 7.34613 52.2084 7.51921 51.7664C7.6923 51.3243 7.94623 50.9227 8.26642 50.5847C8.89063 49.9243 9.7518 49.5162 10.7027 49.5162H20.1803L27.07 53.1609Z" fill="#DA4A54"/>
<path d="M27.0704 34.4889V53.1609L20.1807 49.5163V34.4889H27.0704Z" fill="#3157AB"/>
<path d="M40.9027 17.3909C38.1827 14.5133 33.7726 14.5133 31.0526 17.3909L19.9724 29.1135L29.8225 39.5346L40.9027 27.812C43.6227 24.9343 43.6227 20.2687 40.9027 17.3909Z" fill="#DD636E"/>
<path d="M41.8448 18.6271C39.1495 16.7946 35.52 17.1256 33.1609 19.6215L22.0807 31.3439L19.9724 29.1133L31.0526 17.3908C33.7727 14.513 38.1836 14.513 40.9037 17.3908C41.2585 17.7658 41.5741 18.1804 41.8448 18.6271Z" fill="#DA4A54"/>
<path d="M35.0426 45.0575L33.4795 49.2716L30.1701 50.2109L19.9856 39.4375C17.2958 36.5903 17.2958 31.9748 19.9856 29.1276L35.0426 45.0575Z" fill="#26457D"/>
<path d="M37.0599 48.702V54.0459C37.0599 56.0592 35.5179 57.6904 33.615 57.6904C31.7134 57.6904 30.1702 56.059 30.1702 54.0459V50.2109L35.0427 45.0575L36.0513 46.1247C36.3711 46.4632 36.6248 46.865 36.7978 47.3073C36.9709 47.7495 37.0599 48.2234 37.0599 48.702Z" fill="#DD636E"/>
<path d="M32.3142 48.027V49.6029L30.1701 50.2108L19.9856 39.4373C17.2958 36.5902 17.2958 31.9746 19.9856 29.1274L22.0594 31.3215C20.9446 33.9952 21.4213 37.2329 23.491 39.4242L32.3142 48.027Z" fill="#3157AB"/>
<path d="M30.1702 54.1874V50.211L32.2729 47.9863L32.3143 48.0271V54.2447L30.1702 54.1874Z" fill="#DA4A54"/>
<path d="M53.2603 55.4545C53.047 55.4548 52.8358 55.4105 52.6388 55.3242C52.4418 55.2378 52.2628 55.1112 52.1122 54.9514L29.7375 31.2796C29.1035 30.6088 29.1035 29.5212 29.7375 28.8504C30.3715 28.1794 31.3995 28.1794 32.0336 28.8504L54.4083 52.5222C55.0424 53.193 55.0424 54.2806 54.4083 54.9514C54.2577 55.1111 54.0787 55.2378 53.8817 55.3241C53.6847 55.4105 53.4735 55.4548 53.2603 55.4545Z" fill="#E7A561"/>
<path d="M54.8199 54.2166C54.7443 54.4945 54.6029 54.7473 54.4093 54.9514C54.2584 55.1111 54.0793 55.2377 53.8821 55.324C53.6849 55.4103 53.4735 55.4546 53.2601 55.4543C53.0469 55.4545 52.8358 55.4102 52.6388 55.3239C52.4418 55.2376 52.2629 55.111 52.1122 54.9514L29.7384 31.2805C29.1032 30.6084 29.1032 29.5209 29.7384 28.8502C29.9311 28.6452 30.1702 28.4957 30.4329 28.4158C30.3515 28.7111 30.3467 29.0242 30.4189 29.3222C30.4912 29.6203 30.6378 29.8923 30.8435 30.1098L53.2188 53.7822C53.3693 53.942 53.5483 54.0687 53.7453 54.155C53.9423 54.2413 54.1535 54.2855 54.3667 54.2851C54.5195 54.2851 54.6725 54.2617 54.8199 54.2166Z" fill="#E4936B"/>
<path d="M71.9307 62.9241C71.9307 64.334 70.8504 65.477 69.5177 65.477H61.6012C60.8703 65.477 60.1693 65.1698 59.6524 64.623L51.0217 55.492C50.9275 55.3924 50.8528 55.2741 50.8018 55.1439C50.7508 55.0137 50.7246 54.8742 50.7246 54.7333C50.7246 54.5924 50.7508 54.4529 50.8018 54.3227C50.8528 54.1925 50.9275 54.0743 51.0217 53.9746L53.485 51.3685C53.5792 51.2689 53.691 51.1898 53.814 51.1359C53.9371 51.082 54.0689 51.0542 54.2021 51.0542C54.3353 51.0542 54.4672 51.082 54.5902 51.1359C54.7133 51.1898 54.8251 51.2689 54.9192 51.3685L62.7428 59.6456H68.832C70.5433 59.6456 71.9307 61.1133 71.9307 62.9241Z" fill="#26457D"/>
<path d="M71.8932 63.3689C71.6947 64.5672 70.7068 65.477 69.5175 65.477H61.6013C61.2394 65.477 60.881 65.4015 60.5467 65.255C60.2124 65.1084 59.9086 64.8936 59.6528 64.6227L51.0212 55.4923C50.6257 55.0725 50.6257 54.3931 51.0212 53.9746L51.7722 53.1816C51.7979 53.4201 51.8994 53.6422 52.0602 53.8114L60.6904 62.9419C61.2075 63.4889 61.9088 63.7962 62.6401 63.7961H70.5564C71.05 63.7961 71.5102 63.6386 71.8932 63.3689Z" fill="#3157AB"/>
<path d="M37.2355 21.0751H27.2604L29.9034 23.8713L28.3247 27.2127L25.0309 29.0248L16.5633 20.0663C15.6593 19.1099 15.2762 17.709 15.6359 16.413C15.844 15.6553 16.279 14.9896 16.8753 14.5159C17.4717 14.0421 18.1973 13.786 18.9431 13.7859H37.2355V21.0751Z" fill="#DD636E"/>
<path d="M32.2858 31.5454C31.9662 31.8845 31.5865 32.1534 31.1684 32.3368C30.7503 32.5202 30.3021 32.6144 29.8495 32.614C29.3972 32.6142 28.9492 32.52 28.5314 32.3366C28.1136 32.1532 27.7341 31.8843 27.4147 31.5454L25.0322 29.0248L29.9047 23.8713L32.2858 26.3919C33.6321 27.8147 33.6321 30.1225 32.2858 31.5454Z" fill="#26457D"/>
<path d="M27.3829 27.7304L25.0307 29.0249L16.5633 20.0665C15.6593 19.1101 15.2762 17.7092 15.6359 16.4132C15.7771 15.8988 16.0239 15.4237 16.3585 15.0218C16.6932 14.6198 17.1075 14.301 17.572 14.0879C17.5136 14.2292 17.4639 14.3743 17.4232 14.5223C17.0636 15.8182 17.4465 17.2193 18.3505 18.1756L26.8181 27.134H26.8195L27.3829 27.7304Z" fill="#DA4A54"/>
<path d="M33.0106 30.4188C32.8388 30.8397 32.5928 31.2221 32.2858 31.5457C31.9662 31.8848 31.5865 32.1538 31.1684 32.3371C30.7503 32.5205 30.3021 32.6147 29.8495 32.6143C29.3972 32.6146 28.9492 32.5203 28.5314 32.3369C28.1136 32.1536 27.7341 31.8847 27.4147 31.5457L25.0322 29.0251L26.8195 27.1343L29.2019 29.6549C29.5213 29.9938 29.9008 30.2627 30.3186 30.4461C30.7365 30.6294 31.1844 30.7237 31.6368 30.7235C32.1098 30.724 32.5777 30.6203 33.0106 30.4188Z" fill="#3157AB"/>
<path d="M41.9622 22.1176C38.3662 22.1176 35.4512 19.0336 35.4512 15.2292V9.75882C35.4512 5.95437 38.3662 2.87036 41.9622 2.87036C45.5581 2.87036 48.4732 5.95437 48.4732 9.75882V15.229C48.4732 19.0335 45.558 22.1176 41.9622 22.1176Z" fill="#FFDDCE"/>
<path d="M43.8804 21.8139C43.2588 22.0156 42.6121 22.1179 41.9619 22.1174C38.3668 22.1174 35.4512 19.0345 35.4512 15.2293V9.75876C35.4512 5.95522 38.3668 2.87061 41.9619 2.87061C42.6303 2.87061 43.2746 2.9774 43.8804 3.17591C41.2213 4.04071 39.2882 6.66238 39.2882 9.75891V15.2294C39.2882 18.3273 41.2213 20.9473 43.8804 21.8139Z" fill="#FFCBBE"/>
<path d="M49.3125 9.75889H40.5787V10.73C40.5787 13.0171 38.8263 14.8713 36.6644 14.8713C34.5026 14.8713 32.75 13.0173 32.75 10.73V9.75889C32.75 4.99402 36.401 1.13135 40.9048 1.13135H41.1576C45.6615 1.13135 49.3125 4.99402 49.3125 9.75889Z" fill="#26457D"/>
<path d="M36.8155 9.75895V10.7296C36.8147 11.2736 36.9156 11.8124 37.1124 12.3149C37.3093 12.8174 37.5981 13.2738 37.9624 13.6577C38.1837 13.8919 38.4304 14.0977 38.6974 14.2707C38.0846 14.664 37.3814 14.8717 36.6646 14.8711C35.584 14.8711 34.6062 14.408 33.8969 13.6577C33.5326 13.2738 33.2438 12.8174 33.0469 12.3149C32.8501 11.8124 32.7492 11.2736 32.75 10.7296V9.75895C32.75 4.99317 36.402 1.1311 40.9051 1.1311H41.1586C41.815 1.1311 42.4533 1.21256 43.0646 1.36899C39.479 2.27586 36.8155 5.68766 36.8155 9.75895Z" fill="#3157AB"/>
<path d="M46.0339 71.7618H29.4363V69.3544C29.4363 68.2685 30.2684 67.3882 31.2948 67.3882L37.0601 65.6725L41.9001 67.3882C44.1832 67.3882 46.0339 69.3463 46.0339 71.7618Z" fill="#F9F6F6"/>
<path d="M38.211 66.0806L33.8153 67.3882C32.7887 67.3882 31.9565 68.2687 31.9565 69.3548V71.7616H29.4363V69.3548C29.4363 68.2687 30.2685 67.3882 31.2951 67.3882L37.0604 65.6724L38.211 66.0806Z" fill="#DDDAEC"/>
<path d="M39.8332 60.2671H38.922L37.7138 58.0932L38.922 57.2068V54.2009H29.2949V63.8185C29.2949 65.79 30.8055 67.3882 32.669 67.3882H41.9003C43.1882 67.3882 44.2322 66.2836 44.2322 64.9211C44.2322 62.3507 42.2627 60.2671 39.8332 60.2671Z" fill="#26457D"/>
<path d="M36.4575 67.3874H32.6682C30.8053 67.3874 29.2949 65.7896 29.2949 63.8186V54.2012H33.0842V63.8186C33.0842 65.7895 34.5946 67.3874 36.4575 67.3874Z" fill="#3157AB"/>
<path d="M34.9104 57.2067H38.9219V60.2671H34.9104C34.1116 60.2671 33.4641 59.582 33.4641 58.737C33.464 57.8918 34.1116 57.2067 34.9104 57.2067Z" fill="#DA4A54"/>
<path d="M1.06934 65.6761V48.1163H3.34475C4.37117 48.1163 5.20326 48.9967 5.20326 50.0826L6.82495 56.1821L5.20326 61.3027C5.20326 63.718 3.35245 65.6761 1.06934 65.6761Z" fill="#F9F6F6"/>
<path d="M6.43928 57.3997L5.20326 52.7492C5.20326 51.6631 4.37103 50.7827 3.34446 50.7827H1.06934V48.1163H3.34432C4.37089 48.1163 5.20312 48.9968 5.20312 50.0829L6.82495 56.1824L6.43928 57.3997Z" fill="#DDDAEC"/>
<path d="M11.9337 59.1158V58.1517L13.9886 56.8735L14.8264 58.1517H17.6674V47.9666H8.57701C6.7135 47.9666 5.20288 49.5647 5.20288 51.5363V61.3027C5.20288 62.6653 6.24698 63.7698 7.53476 63.7698C9.9643 63.7698 11.9337 61.6862 11.9337 59.1158Z" fill="#26457D"/>
<path d="M5.2041 55.5444V51.5354C5.2041 49.5644 6.7143 47.9666 8.57737 47.9666H17.6678V51.9755H8.57737C6.7143 51.9755 5.2041 53.5733 5.2041 55.5444Z" fill="#3157AB"/>
<path d="M14.8267 53.9076V58.1516H11.9341V53.9076C11.9341 53.0624 12.5817 52.3774 13.3804 52.3774C14.1793 52.3774 14.8267 53.0626 14.8267 53.9076Z" fill="#DA4A54"/>
<path d="M60.964 71.7617C62.9219 71.7617 64.5091 70.0825 64.5091 68.0111C64.5091 65.9397 62.9219 64.2605 60.964 64.2605C59.0061 64.2605 57.4189 65.9397 57.4189 68.0111C57.4189 70.0825 59.0061 71.7617 60.964 71.7617Z" fill="#F6E266"/>
<path d="M62.2609 71.5016C61.8477 71.6735 61.4075 71.7615 60.9635 71.761C59.0058 71.761 57.4189 70.0821 57.4189 68.011C57.4189 65.9384 59.0058 64.2595 60.9635 64.2595C61.4211 64.2595 61.8588 64.3515 62.2609 64.519C60.9435 65.065 60.011 66.4226 60.011 68.011C60.011 69.5979 60.9435 70.9555 62.2609 71.5016Z" fill="#FFD064"/>
<path d="M68.8327 58.5134H63.186L60.7675 55.9547C60.5669 55.7425 60.295 55.6233 60.0114 55.6233C59.7278 55.6233 59.4558 55.7425 59.2553 55.9547C59.0548 56.1668 58.9421 56.4546 58.9421 56.7546C58.9421 57.0546 59.0548 57.3424 59.2553 57.5545L61.9871 60.4447C62.0864 60.5498 62.2042 60.6331 62.334 60.69C62.4637 60.7468 62.6028 60.7761 62.7432 60.7761H68.8327C69.9515 60.7761 70.8616 61.7397 70.8616 62.9241C70.8616 63.7076 70.2591 64.3451 69.5185 64.3451H64.0064C63.1936 63.589 62.1289 63.1291 60.9641 63.1291C60.5914 63.1291 60.2294 63.1774 59.8821 63.2659L51.8169 54.7333L54.2027 52.2092L56.254 54.3794C56.4545 54.5915 56.7265 54.7107 57.0101 54.7107C57.2937 54.7107 57.5656 54.5915 57.7662 54.3794C57.9667 54.1672 58.0793 53.8795 58.0793 53.5795C58.0793 53.2794 57.9667 52.9917 57.7662 52.7795L55.676 50.5682C55.4829 50.3628 55.2532 50.1999 55.0003 50.089C54.7473 49.9782 54.4761 49.9215 54.2023 49.9222H54.2004C53.9809 49.9224 53.7669 49.9597 53.5638 50.0286L49.3123 45.5306L42.8517 26.996C43.5513 25.7722 43.9471 24.3812 44.0024 22.9522C47.194 22.007 49.5424 18.9037 49.5424 15.2286V10.8634C50.0223 10.752 50.3819 10.3001 50.3819 9.75888C50.3819 4.3778 46.244 0 41.1578 0H40.905C35.8188 0 31.6808 4.3778 31.6808 9.75888V10.73C31.6808 11.4093 31.8042 12.0583 32.0263 12.6552H26.407C26.1234 12.6552 25.8514 12.7744 25.6509 12.9866C25.4503 13.1988 25.3377 13.4865 25.3377 13.7866C25.3377 14.0866 25.4503 14.3744 25.6509 14.5865C25.8514 14.7987 26.1234 14.9179 26.407 14.9179H33.6414C33.8755 15.1073 34.1249 15.2744 34.3868 15.4173C34.4814 19.7095 37.7758 23.1769 41.8387 23.2462C41.7005 24.67 41.1027 25.9999 40.146 27.012L35.9773 31.4224L34.3157 29.6644C34.3469 29.4361 34.3632 29.2039 34.3632 28.9691C34.3632 27.6934 33.8938 26.4943 33.0416 25.5929L29.842 22.2069H33.935C34.2186 22.2069 34.4906 22.0877 34.6911 21.8755C34.8917 21.6633 35.0044 21.3756 35.0044 21.0755C35.0044 20.7755 34.8917 20.4877 34.6911 20.2755C34.4906 20.0634 34.2186 19.9442 33.935 19.9442H27.7032L26.199 18.3528C25.9984 18.1406 25.7265 18.0215 25.4429 18.0215C25.1593 18.0215 24.8873 18.1406 24.6868 18.3528C24.4863 18.5649 24.3736 18.8527 24.3736 19.1527C24.3736 19.4527 24.4863 19.7405 24.6868 19.9526L26.5041 21.8753L26.5099 21.8809L28.3908 23.8714L25.031 27.425L17.3195 19.2664C16.6702 18.5795 16.4184 17.6087 16.663 16.7295C16.9616 15.646 17.8778 14.9181 18.9429 14.9181H22.1323C22.416 14.9181 22.6879 14.7989 22.8885 14.5867C23.089 14.3745 23.2017 14.0868 23.2017 13.7867C23.2017 13.4867 23.089 13.1989 22.8885 12.9867C22.6879 12.7746 22.416 12.6554 22.1323 12.6554H18.9429C16.9498 12.6554 15.1679 14.0703 14.6108 16.0934C14.1455 17.7645 14.604 19.5935 15.8071 20.8665L21.0315 26.3937C21.0315 26.3937 19.1144 28.4349 19.074 28.501C16.1691 31.7523 16.1814 36.8694 19.1111 40.1047V48.3853H18.7371V47.9668C18.7371 47.6668 18.6245 47.379 18.4239 47.1669C18.2234 46.9547 17.9514 46.8355 17.6678 46.8355H8.57739C7.41937 46.8355 6.36386 47.3069 5.57212 48.0776C5.03474 47.4104 4.2363 46.9853 3.34475 46.9853H1.06934C0.785734 46.9853 0.513743 47.1045 0.313202 47.3167C0.112662 47.5288 0 47.8166 0 48.1166L0 65.6766C0 65.9766 0.112662 66.2644 0.313202 66.4766C0.513743 66.6887 0.785734 66.8079 1.06934 66.8079C2.9404 66.8079 4.58333 65.7573 5.5004 64.1847C6.08725 64.6507 6.80138 64.9023 7.53514 64.9014C10.4975 64.9014 12.9173 62.3963 13.0012 59.2832H17.6678C17.9514 59.2832 18.2234 59.164 18.4239 58.9518C18.6245 58.7397 18.7371 58.4519 18.7371 58.1519V57.9371H23.6253C26.1144 57.9371 28.1396 55.7946 28.1396 53.1612V49.6619L29.1013 50.6792V53.0894C28.6031 53.1858 28.2252 53.6464 28.2252 54.2014V63.8188C28.2252 65.0439 28.6709 66.1606 29.3992 66.9983C28.7685 67.567 28.3667 68.4115 28.3667 69.3548V71.7621C28.3667 72.0621 28.4794 72.3499 28.6799 72.5621C28.8805 72.7742 29.1525 72.8934 29.4361 72.8934H46.0338C46.3174 72.8934 46.5894 72.7742 46.79 72.5621C46.9905 72.3499 47.1032 72.0621 47.1032 71.7621C47.1032 69.7826 46.1101 68.0444 44.6237 67.0741C45.0641 66.4533 45.3019 65.6977 45.3011 64.9214C45.3011 61.7874 42.9334 59.2272 39.9909 59.1385V54.2009C39.9909 53.9009 39.8782 53.6131 39.6777 53.401C39.4772 53.1888 39.2052 53.0696 38.9216 53.0696H38.1297V48.7013C38.1297 47.4261 37.6597 46.2267 36.8064 45.3239L31.3345 39.5343L33.6814 37.0523L38.5179 42.1693L40.8974 48.9959C41.5477 50.8655 43.2495 52.1216 45.1323 52.1216C45.665 52.1216 46.1904 52.022 46.6938 51.8259C46.9184 51.7382 47.136 51.6318 47.3447 51.5078L49.7554 54.0582C49.689 54.2764 49.6551 54.5041 49.6549 54.7333C49.6549 55.322 49.8717 55.8756 50.2654 56.2919L57.8978 64.3668C56.9486 65.2616 56.3494 66.5634 56.3494 68.011C56.3494 70.703 58.4195 72.893 60.9638 72.893C63.5081 72.893 65.5782 70.7029 65.5782 68.011C65.5782 67.5234 65.5095 67.0524 65.383 66.6077H69.5182C71.4381 66.6077 73 64.9552 73 62.9241C73.0003 60.4921 71.1308 58.5134 68.8327 58.5134ZM2.13868 64.3413V49.2477H3.34475C3.55399 49.2479 3.75458 49.3359 3.90253 49.4925C4.05048 49.649 4.1337 49.8612 4.13393 50.0826V61.3027C4.13393 62.6926 3.30284 63.8812 2.13868 64.3413ZM13.0035 57.0202V53.9075C13.0035 53.6876 13.1727 53.5087 13.3806 53.5087C13.5885 53.5087 13.7576 53.6876 13.7576 53.9075V57.0202H13.0035ZM16.5986 57.0202H15.8962V53.9075C15.8962 52.44 14.7677 51.246 13.3806 51.246C11.9934 51.246 10.8648 52.44 10.8648 53.9075V59.1158C10.8648 61.0582 9.37113 62.6384 7.53514 62.6384C6.83893 62.6384 6.27261 62.0391 6.27261 61.3027V51.5363C6.27261 50.1916 7.30645 49.0979 8.57739 49.0979H16.5986V57.0202ZM33.8195 9.75888C33.8195 5.62544 36.998 2.26267 40.905 2.26267H41.1578C44.7013 2.26267 47.6455 5.029 48.1627 8.62754H40.5787C40.2951 8.62754 40.0232 8.74674 39.8226 8.9589C39.6221 9.17107 39.5094 9.45883 39.5094 9.75888V10.73C39.5094 12.3896 38.2332 13.74 36.6644 13.74C35.0956 13.74 33.8194 12.3898 33.8194 10.73V9.75888H33.8195ZM36.5713 16.0001C36.6024 16.0007 36.6333 16.0026 36.6645 16.0026C39.3618 16.0026 41.5655 13.7238 41.6458 10.8904H47.4037V15.2286C47.4037 18.4038 44.9628 20.987 41.9623 20.987C39.2093 20.9868 36.9289 18.8115 36.5713 16.0001ZM41.2765 29.016L45.7012 41.71L37.4896 33.0224L41.2765 29.016ZM51.8894 51.4568L51.1053 52.2864L32.6247 32.7343C32.771 32.6137 32.9102 32.4837 33.0416 32.3453C33.1724 32.2064 33.295 32.0592 33.4089 31.9046L51.8894 51.4568ZM29.903 25.4714L31.5293 27.1926C31.7504 27.4253 31.9257 27.7022 32.045 28.0071C32.1644 28.312 32.2254 28.6389 32.2245 28.9689C32.2245 29.6402 31.9775 30.2711 31.5293 30.7454C31.3094 30.9795 31.0477 31.1652 30.7595 31.2916C30.4713 31.4181 30.1623 31.4828 29.8503 31.482C29.538 31.4831 29.2286 31.4185 28.9401 31.2921C28.6516 31.1656 28.3898 30.9798 28.1697 30.7454L26.5434 29.0249L29.903 25.4714ZM23.6254 55.6742H18.7373V50.6477H19.9278L25.9165 53.8157C25.6431 54.8844 24.721 55.6742 23.6254 55.6742ZM26.0009 51.3307L21.2499 48.8173V42.3732L26.0011 47.3991V51.3307H26.0009ZM20.7423 38.6368C18.7311 36.5089 18.502 33.1986 20.0553 30.8014L33.5297 45.0568L30.1708 48.6105L20.7423 38.6368ZM30.5056 70.6303V69.3543C30.5058 69.133 30.589 68.9207 30.737 68.7642C30.8849 68.6077 31.0855 68.5196 31.2947 68.5194H41.9C43.2139 68.5194 44.3373 69.3987 44.7721 70.6303H30.5056ZM43.1626 64.9211C43.1626 65.6577 42.5962 66.2569 41.9 66.2569H32.6688C31.3978 66.2569 30.364 65.1631 30.364 63.8185V55.3323H37.8524V56.0753H34.9102C33.5231 56.0753 32.3944 57.2694 32.3944 58.737C32.3944 60.2045 33.5231 61.3985 34.9102 61.3985H39.8331C41.6689 61.3985 43.1626 62.9787 43.1626 64.9211ZM34.9102 59.1358C34.7024 59.1358 34.5331 58.9568 34.5331 58.7368C34.5331 58.5169 34.7024 58.338 34.9102 58.338H37.8524V59.1358H34.9102ZM35.9911 53.0696H31.24V50.6789L35.0419 46.6566L35.2942 46.9238C35.7386 47.3961 35.989 48.0348 35.9911 48.7013V53.0696ZM29.8225 37.9343L21.4853 29.1131L22.5438 27.9932L26.6567 32.3445C27.5083 33.2475 28.6425 33.7448 29.8503 33.7448C30.0703 33.7447 30.29 33.7279 30.5077 33.6946L32.1693 35.4525L29.8225 37.9343ZM45.1326 49.8589C44.1421 49.8589 43.2468 49.198 42.9045 48.2138L42.1293 45.9899L45.7124 49.7806C45.523 49.832 45.3282 49.8583 45.1326 49.8589ZM60.9641 70.6303C59.5989 70.6303 58.4883 69.4552 58.4883 68.011C58.4883 66.5669 59.599 65.3918 60.9641 65.3918C62.3291 65.3918 63.4398 66.5669 63.4398 68.011C63.4398 69.4552 62.3293 70.6303 60.9641 70.6303Z" fill="black"/>
</svg>
