<svg width="68" height="72" viewBox="0 0 68 72" fill="none" xmlns="http://www.w3.org/2000/svg">
<path d="M64.8123 54.5862C63.0435 54.5472 61.58 56.0513 61.5437 57.9464L61.4683 61.8465C61.4497 62.8079 60.9555 63.7036 60.1784 64.1843C58.946 64.9467 57.3643 64.4927 56.6527 63.172L43.8996 39.505L24.0276 4.41057C24.4012 3.62658 24.4096 2.66287 23.9683 1.84387L23.699 1.34392C23.0063 0.0588108 21.4726 -0.38152 20.2732 0.360424L18.5246 1.44221C17.3251 2.1843 16.9142 3.82741 17.6066 5.11267L17.876 5.61248C18.3173 6.43162 19.1004 6.90549 19.9209 6.9509L38.3515 42.937L51.1048 66.604C53.5825 71.2023 59.0898 72.7835 63.3816 70.1287C66.0874 68.4549 67.8085 65.3359 67.8733 61.9887L67.9485 58.0885C67.9852 56.1934 66.5811 54.6256 64.8123 54.5862Z" fill="#42C398"/>
<path d="M18.5246 1.44202L19.2634 0.984848C19.322 1.18934 19.4017 1.3862 19.501 1.57181L19.7704 2.07176C20.2117 2.89075 20.9661 3.38236 21.7432 3.45457L52.9793 63.0755C55.4571 67.6738 60.7108 69.4118 64.6905 66.9498C65.993 66.1442 67.0322 64.9467 67.7262 63.5227C67.2517 66.2669 65.6683 68.7138 63.3816 70.1284C59.09 72.7831 53.5825 71.2021 51.1048 66.6038L38.3515 42.9368L19.9209 6.95057C19.1004 6.90516 18.3173 6.43143 17.876 5.61229L17.6066 5.11248C16.9142 3.82723 17.3251 2.18396 18.5246 1.44202Z" fill="#21A17D"/>
<path d="M50.6111 51.9606L46.3902 44.1276L43.1255 51.7967L47.3463 59.6296L50.6111 51.9606Z" fill="#E9A761"/>
<path d="M47.3464 59.6296L43.1255 51.7967L44.792 47.8823L49.0129 55.7151L47.3464 59.6296Z" fill="#E38523"/>
<path d="M43.2493 38.354L24.0278 4.4106C24.4013 3.62676 24.4098 2.66304 23.9684 1.84405L23.699 1.3441C23.0065 0.0588434 21.4728 -0.381491 20.2733 0.360598L18.5247 1.44239C17.3251 2.18433 16.9142 3.82759 17.6066 5.1127L17.8761 5.6125C18.3174 6.43164 19.1006 6.90567 19.921 6.95093L37.7467 41.7578L43.2493 38.354Z" fill="#252225"/>
<path d="M17.4293 2.82813C17.6324 2.24349 18.0198 1.75327 18.5245 1.44224L19.2634 0.985061C19.5921 2.11592 20.3877 3.20811 21.5347 3.42549C21.601 3.43775 21.6639 3.46575 21.7188 3.50745C21.7736 3.54915 21.8191 3.60348 21.8518 3.66646L40.5556 40.0201L37.7464 41.7578L19.9209 6.95093C19.8696 6.948 19.8185 6.94346 19.7675 6.93731C19.1566 6.86333 18.5774 6.55132 18.1583 6.03628C17.4206 5.12998 17.0337 3.96397 17.4293 2.82813Z" fill="#544F56"/>
<path d="M3.13689 54.5862C4.90576 54.5472 6.3692 56.0513 6.40556 57.9464L6.4809 61.8465C6.49949 62.8079 6.99373 63.7036 7.77084 64.1843C9.00322 64.9467 10.5849 64.4927 11.2965 63.172L24.0497 39.505L43.9216 4.41057C43.5481 3.62658 43.5396 2.66287 43.9809 1.84387L44.2503 1.34392C44.9429 0.0588108 46.4766 -0.38152 47.676 0.360424L49.4247 1.44221C50.6241 2.1843 51.0351 3.82741 50.3426 5.11267L50.0733 5.61248C49.6319 6.43162 48.8488 6.90549 48.0284 6.9509L29.5977 42.937L16.8445 66.604C14.3667 71.2023 8.85939 72.7835 4.56765 70.1287C1.86185 68.4549 0.140701 65.3359 0.0758963 61.9887L0.000701106 58.0885C-0.0359395 56.1934 1.36816 54.6256 3.13689 54.5862Z" fill="#42C398"/>
<path d="M49.4246 1.44202L48.6857 0.984848C48.6271 1.18934 48.5474 1.3862 48.4481 1.57181L48.1788 2.07176C47.7375 2.8909 46.983 3.38236 46.2059 3.45472L14.9698 63.0755C12.492 67.6736 7.23835 69.4118 3.2586 66.9498C1.95609 66.1442 0.916885 64.9467 0.2229 63.5227C0.697451 66.2669 2.28079 68.7138 4.56755 70.1284C8.85915 72.7831 14.3666 71.2021 16.8443 66.6038L29.5976 42.9368L48.0283 6.95057C48.8487 6.90516 49.6318 6.43143 50.0732 5.61229L50.3425 5.11248C51.035 3.82723 50.624 2.18396 49.4246 1.44202Z" fill="#21A17D"/>
<path d="M17.3381 51.9606L21.5591 44.1276L24.8238 51.7967L20.603 59.6296L17.3381 51.9606Z" fill="#E9A761"/>
<path d="M20.6027 59.6296L24.8235 51.7967L23.1571 47.8822L18.9363 55.715L20.6027 59.6296Z" fill="#E38523"/>
<path d="M24.7 38.354L43.9215 4.4106C43.548 3.62676 43.5395 2.66304 43.9808 1.84405L44.2503 1.3441C44.9428 0.0588434 46.4765 -0.381491 47.6759 0.360598L49.4246 1.44239C50.6242 2.18433 51.0351 3.82759 50.3426 5.1127L50.0732 5.6125C49.6318 6.43164 48.8487 6.90567 48.0283 6.95093L30.2026 41.7578L24.7 38.354Z" fill="#252225"/>
<path d="M50.5198 2.82813C50.3167 2.24349 49.9294 1.75327 49.4247 1.44224L48.6857 0.985061C48.3571 2.11592 47.5615 3.20811 46.4144 3.42549C46.3481 3.43775 46.2852 3.46575 46.2304 3.50745C46.1755 3.54915 46.1301 3.60348 46.0974 3.66646L27.3936 40.0201L30.2027 41.7578L48.0282 6.95093C48.0795 6.948 48.1306 6.94346 48.1816 6.93745C48.7925 6.86333 49.3718 6.55132 49.7908 6.03628C50.5286 5.12998 50.9155 3.96397 50.5198 2.82813Z" fill="#544F56"/>
<path d="M33.9746 55.4146C30.9856 55.4146 28.5625 58.0109 28.5625 61.2133C28.5625 64.4159 30.9856 67.0122 33.9746 67.0122C36.9637 67.0122 39.3868 64.4159 39.3868 61.2133C39.3868 58.0109 36.9637 55.4146 33.9746 55.4146Z" fill="#E38523"/>
<path d="M36.6143 56.1513C37.0662 57.0152 37.303 57.9892 37.3019 58.9795C37.3019 62.1821 34.8788 64.7784 31.8897 64.7784C30.9655 64.7796 30.0565 64.5258 29.2502 64.0416C30.1762 65.8136 31.9444 67.0123 33.9747 67.0123C36.9638 67.0123 39.3868 64.416 39.3868 61.2134C39.3868 59.0381 38.2683 57.1435 36.6143 56.1513Z" fill="#E38523"/>
</svg>
